<?xml version="1.0" standalone="no"?>
<!DOCTYPE svg PUBLIC "-//W3C//DTD SVG 1.1//EN" "http://www.w3.org/Graphics/SVG/1.1/DTD/svg11.dtd" >
<svg>
<metadata>
Created by FontForge 20120731 at Thu Oct 23 14:17:14 2014
 By root
----------------------------------------------------------------------------------
  Copyright (c) 2006 M. Hacen, All Rights Reserved / www.hacen.net
        Convert And Modified By Mojtaba Kia (c) 2007 - 2008
----------------------------------------------------------------------------------
</metadata>
<defs>
<font id="Mj_Beirut" horiz-adv-x="0" >
  <font-face 
    font-family="Mj_Beirut"
    font-weight="400"
    font-stretch="normal"
    units-per-em="2048"
    panose-1="0 0 4 0 0 0 0 0 0 0"
    ascent="1638"
    descent="-410"
    bbox="-211 -1254 2109 2253"
    underline-thickness="60"
    underline-position="-650"
    unicode-range="U+0020-FEFC"
  />
<missing-glyph horiz-adv-x="1024" 
d="M128 -147v1343h768v-1343h-768zM256 -19h512v1087h-512v-1087z" />
    <glyph glyph-name=".notdef" unicode="&#x652;&#x64d;" horiz-adv-x="1024" 
d="M128 -147v1343h768v-1343h-768zM256 -19h512v1087h-512v-1087z" />
    <glyph glyph-name="uniFC60" unicode="&#x651;&#x64e;" arabic-form="isolated" 
d="M542 1852q0 -61 -35 -105q-42 -49 -108 -49q-70 0 -96 47q-43 -50 -122 -50q-52 0 -86 43t-34 89q0 33 19 73q25 55 64 55q29 0 29 -31q0 -10 -2.5 -29t-2.5 -29q0 -42 33 -42q38 0 53 30q5 12 19 74q6 30 38 30t35 -33q12 -107 53 -107q38 0 38 45q0 23 -10 57l79 65
q36 -59 36 -133zM506 2145l-377 -155v114l377 149v-108z" />
    <glyph glyph-name="uniFC61" unicode="&#x651;&#x64f;" arabic-form="isolated" 
d="M544 1723q0 -61 -36 -105q-41 -49 -107 -49q-69 0 -96 48q-42 -50 -123 -50q-56 0 -93 53q-26 40 -26 78q0 33 19 73q25 55 64 55q28 0 28 -31q0 -9 -2 -28.5t-2 -28.5q0 -42 33 -42q38 0 53 31q4 8 19 73q6 29 37 29q33 0 36 -32q12 -107 53 -107q38 0 38 46
q0 22 -10 56l78 63q37 -56 37 -132zM515 2137q0 -51 -71 -129q1 -1 47 -13l-49 -88q-71 14 -99 34q-123 -70 -217 -70q-46 0 -86 97q117 3 151 7q63 9 86 29q-35 62 -35 87q0 54 75 109q64 48 100 48q47 0 76 -38q22 -32 22 -73zM403 2125q0 25 -19 25q-10 0 -23 -11.5
t-13 -26.5q0 -35 27 -56q28 18 28 69z" />
    <glyph glyph-name="uniE818" unicode="&#x651;&#x64b;" 
d="M514 1990l-377 -155v114l377 150v-109zM550 1656q0 -61 -35 -104q-42 -50 -108 -50q-69 0 -96 48q-41 -50 -122 -50q-57 0 -93 54q-27 39 -27 77q0 33 19 74q25 54 64 54q29 0 29 -30q0 -10 -2.5 -29.5t-2.5 -28.5q0 -42 33 -42q38 0 53 31q4 8 19 73q6 30 38 30t35 -33
q12 -106 53 -106q38 0 38 45q0 22 -10 56l79 64q36 -56 36 -133zM514 2142l-377 -155v114l377 149v-108z" />
    <glyph glyph-name="uniFC5E" unicode="&#x651;&#x64c;" arabic-form="isolated" 
d="M526 1756q0 -61 -35 -104q-42 -49 -108 -49q-70 0 -96 47q-43 -51 -122 -51q-52 0 -86 43t-34 89q0 33 19 74q25 54 64 54q29 0 29 -30q0 -11 -2.5 -30t-2.5 -29q0 -42 33 -42q38 0 53 31q5 12 19 73q6 31 38 31t35 -34q12 -106 53 -106q38 0 38 45q0 22 -10 56l79 65
q36 -59 36 -133zM545 2132q0 -50 -71 -129q1 0 48 -14l-51 -86q-68 12 -98 34q-118 -70 -218 -70q-43 0 -86 96q63 0 72 3q21 24 21 50q0 20 -16 20q-17 0 -62 -48l-18 84q49 55 101 55q19 0 38 -8q47 -22 47 -79q0 -42 -15 -64q47 4 71 22q-36 61 -36 87q0 56 74 110
q64 47 102 47q97 0 97 -110zM434 2121q0 23 -21 23q-33 0 -33 -37q0 -35 25 -56q29 18 29 70z" />
    <glyph glyph-name="uniFC62" unicode="&#x651;&#x650;" horiz-adv-x="1" arabic-form="isolated" 
d="M547 2118q0 -61 -35 -104q-42 -50 -108 -50q-70 0 -96 48q-43 -51 -122 -51q-52 0 -86 43t-34 89q0 33 19 74q25 54 64 54q29 0 29 -30q0 -11 -2.5 -30t-2.5 -29q0 -42 33 -42q38 0 53 31q5 12 19 73q6 31 38 31t35 -34q12 -107 53 -107q38 0 38 46q0 22 -10 56l79 65
q36 -59 36 -133zM492 1872l-378 -153v113l378 150v-110z" />
    <glyph glyph-name="uniFC5F" unicode="&#x651;&#x64d;" arabic-form="isolated" 
d="M566 2112q0 -61 -35 -104q-42 -50 -108 -50q-70 0 -96 48q-43 -51 -122 -51q-52 0 -86 43t-34 89q0 33 19 74q25 54 64 54q29 0 29 -30q0 -11 -2.5 -30t-2.5 -29q0 -42 33 -42q38 0 53 31q5 11 19 73q6 31 38 31t35 -34q12 -107 53 -107q38 0 38 46q0 22 -10 56l79 65
q36 -59 36 -133zM518 1846l-378 -154v113l378 150v-109zM518 1681l-378 -153v113l378 150v-110z" />
    <glyph glyph-name="uniFEF5" unicode="&#xfedf;&#xfe82;" horiz-adv-x="1026" arabic-form="isolated" 
d="M644 314v786q0 19 7.5 36.5t20 30t30 20t37.5 7.5h125q19 0 36 -7.5t30 -20t20.5 -30t7.5 -36.5v-811q0 -77 -17.5 -131.5t-51.5 -89.5t-83 -51.5t-113 -16.5h-542q-40 0 -67 27.5t-27 66.5v126q0 39 27 66.5t67 27.5h53v786q0 19 7.5 36.5t20 30t29.5 20t37 7.5h125
q19 0 36.5 -7.5t30 -20t20 -30t7.5 -36.5v-786h127zM200 1269q-12 0 -20.5 8t-8.5 21v37q0 12 8.5 20t20.5 8h304q11 0 19 -8t8 -20v-37q0 -13 -8 -21t-19 -8h-304z" />
    <glyph glyph-name="uniFEF6" unicode="&#xfee0;&#xfe82;" horiz-adv-x="927" arabic-form="final" 
d="M390 314h127v786q0 19 7.5 36.5t20 30t29.5 20t37 7.5h125q19 0 36 -7.5t30 -20t20.5 -30t7.5 -36.5v-786h102v-314h-591q-128 0 -196.5 68t-68.5 221v811q0 19 7.5 36.5t20 30t29.5 20t37 7.5h125q19 0 36.5 -7.5t30.5 -20t20.5 -30t7.5 -36.5v-786zM80 1269
q-12 0 -20.5 8t-8.5 21v37q0 12 8.5 20t20.5 8h303q11 0 19.5 -8t8.5 -20v-37q0 -13 -8.5 -21t-19.5 -8h-303z" />
    <glyph glyph-name="uniFEF7" unicode="&#xfedf;&#xfe84;" horiz-adv-x="1026" arabic-form="isolated" 
d="M644 314v786q0 19 7.5 36.5t20 30t30 20t37.5 7.5h125q19 0 36 -7.5t30 -20t20.5 -30t7.5 -36.5v-811q0 -77 -17.5 -131.5t-51.5 -89.5t-83 -51.5t-113 -16.5h-542q-40 0 -67 27.5t-27 66.5v126q0 39 27 66.5t67 27.5h53v786q0 19 7.5 36.5t20 30t29.5 20t37 7.5h125
q19 0 36.5 -7.5t30 -20t20 -30t7.5 -36.5v-786h127zM272 1428v77q0 61 26.5 87.5t77.5 26.5h91q15 0 26 -10.5t11 -26.5v-50q0 -15 -11 -25.5t-26 -10.5h-73v-68h73q15 0 26 -10.5t11 -25.5v-50q0 -16 -11 -26.5t-26 -10.5h-216q-16 0 -27 10.5t-11 26.5v50q0 15 11 25.5
t27 10.5h21z" />
    <glyph glyph-name="uniFEF8" unicode="&#xfee0;&#xfe84;" horiz-adv-x="927" arabic-form="final" 
d="M390 314h127v786q0 19 7.5 36.5t20 30t29.5 20t37 7.5h125q19 0 36 -7.5t30 -20t20.5 -30t7.5 -36.5v-786h102v-314h-591q-128 0 -196.5 68t-68.5 221v811q0 19 7.5 36.5t20 30t29.5 20t37 7.5h125q19 0 36.5 -7.5t30.5 -20t20.5 -30t7.5 -36.5v-786zM148 1428v77
q0 61 26.5 87.5t76.5 26.5h93q14 0 24.5 -10.5t10.5 -26.5v-50q0 -15 -10.5 -25.5t-24.5 -10.5h-73v-68h73q14 0 24.5 -10.5t10.5 -25.5v-50q0 -16 -10.5 -26.5t-24.5 -10.5h-218q-16 0 -26.5 10.5t-10.5 26.5v50q0 15 10.5 25.5t26.5 10.5h22z" />
    <glyph glyph-name="uniFEF9" unicode="&#xfedf;&#xfe88;" horiz-adv-x="1026" arabic-form="isolated" 
d="M644 314v786q0 19 7.5 36.5t20 30t30 20t37.5 7.5h125q19 0 36 -7.5t30 -20t20.5 -30t7.5 -36.5v-811q0 -77 -17.5 -131.5t-51.5 -89.5t-83 -51.5t-113 -16.5h-542q-40 0 -67 27.5t-27 66.5v126q0 39 27 66.5t67 27.5h53v786q0 19 7.5 36.5t20 30t29.5 20t37 7.5h125
q19 0 36.5 -7.5t30 -20t20 -30t7.5 -36.5v-786h127zM237 -303v76q0 61 26.5 87.5t76.5 26.5h92q15 0 25.5 -10t10.5 -26v-50q0 -15 -10.5 -26t-25.5 -11h-73v-67h73q15 0 25.5 -11.5t10.5 -25.5v-49q0 -16 -10.5 -27t-25.5 -11h-217q-16 0 -26.5 11t-10.5 27v49
q0 14 10.5 25.5t26.5 11.5h22z" />
    <glyph glyph-name="uniFEFA" unicode="&#xfee0;&#xfe88;" horiz-adv-x="927" arabic-form="final" 
d="M390 314h127v786q0 19 7.5 36.5t20 30t29.5 20t37 7.5h125q19 0 36 -7.5t30 -20t20.5 -30t7.5 -36.5v-786h102v-314h-591q-128 0 -196.5 68t-68.5 221v811q0 19 7.5 36.5t20 30t29.5 20t37 7.5h125q19 0 36.5 -7.5t30.5 -20t20.5 -30t7.5 -36.5v-786zM134 -303v76
q0 61 26.5 87.5t76.5 26.5h92q15 0 25.5 -10t10.5 -26v-50q0 -15 -10.5 -26t-25.5 -11h-73v-67h73q15 0 25.5 -11.5t10.5 -25.5v-49q0 -16 -10.5 -27t-25.5 -11h-217q-16 0 -26.5 11t-10.5 27v49q0 14 10.5 25.5t26.5 11.5h22z" />
    <glyph glyph-name="uniFEFB" unicode="&#xfedf;&#xfe8e;" horiz-adv-x="1026" arabic-form="isolated" 
d="M644 314v786q0 19 7.5 36.5t20 30t30 20t37.5 7.5h125q19 0 36 -7.5t30 -20t20.5 -30t7.5 -36.5v-811q0 -77 -17.5 -131.5t-51.5 -89.5t-83 -51.5t-113 -16.5h-542q-40 0 -67 27.5t-27 66.5v126q0 39 27 66.5t67 27.5h53v786q0 19 7.5 36.5t20 30t29.5 20t37 7.5h125
q19 0 36.5 -7.5t30 -20t20 -30t7.5 -36.5v-786h127z" />
    <glyph glyph-name="uniFEFC" unicode="&#xfee0;&#xfe8e;" horiz-adv-x="927" arabic-form="final" 
d="M390 314h127v786q0 19 7.5 36.5t20 30t29.5 20t37 7.5h125q19 0 36 -7.5t30 -20t20.5 -30t7.5 -36.5v-786h102v-314h-591q-128 0 -196.5 68t-68.5 221v811q0 19 7.5 36.5t20 30t29.5 20t37 7.5h125q19 0 36.5 -7.5t30.5 -20t20.5 -30t7.5 -36.5v-786z" />
    <glyph glyph-name="uniFDF2" unicode="&#xfedf;&#xfee0;&#xfeea;" horiz-adv-x="1852" arabic-form="isolated" 
d="M1478 314v786q0 19 7.5 36.5t20.5 30t30 20t37 7.5h125q19 0 36.5 -7.5t30 -20t20 -30t7.5 -36.5v-811q0 -77 -17.5 -131.5t-51.5 -89.5t-83 -51.5t-113 -16.5h-1202q-128 0 -196.5 68t-68.5 221v323q0 153 68.5 221t196.5 68h223q128 0 196.5 -68t68.5 -221v-298h176
v566q0 19 7.5 36.5t20.5 30t30 20t37 7.5h125q19 0 36.5 -7.5t30 -20t20 -30t7.5 -36.5v-566h175zM1362 1104q0 -23 -7 -38t-18 -23.5t-25 -12t-28 -3.5h-260q-39 0 -58 17.5t-19 59.5v150q0 12 8.5 20.5t19.5 8.5h38q11 0 19.5 -8.5t8.5 -20.5v-133h67v133q0 12 8.5 20.5
t19.5 8.5h38q11 0 19 -8.5t8 -20.5v-133h67v133q0 12 8 20.5t20 8.5h38q11 0 19.5 -8.5t8.5 -20.5v-150zM372 314h129v275h-129v-275z" />
    <glyph glyph-name="uniFD3E" unicode="&#x652;&#x64e;" horiz-adv-x="1135" 
d="M1075 -612q0 -15 -24 -15q-76 0 -229 151q-201 196 -314 499q-209 3 -209 55q137 144 137 223q-62 0 -133.5 -73.5t-81.5 -73.5q-38 0 -55 163q-111 54 -111 95q0 46 105 108q11 156 49 156q153 -144 227 -144q-7 77 -78 146t-71 78q0 16 61 35q69 21 154 24
q72 217 195 388q95 133 204 219q87 69 123 69q20 0 20 -23q0 -10 -73 -91q-90 -101 -147 -208q-89 -164 -119 -364q100 -16 100 -45q-141 -142 -141 -221q72 0 215 147q18 0 37 -53t22 -111q106 -55 106 -100q0 -37 -100 -96q-8 -160 -55 -160l-68 65q-69 68 -153 76
q0 -71 73.5 -143t73.5 -84q0 -23 -108 -45q32 -163 130.5 -336.5t217.5 -276.5q20 -17 20 -34zM680 418q0 53 -38 91t-91 38q-54 0 -91.5 -38t-37.5 -91q0 -52 37.5 -88.5t91.5 -36.5q53 0 91 36.5t38 88.5z" />
    <glyph glyph-name="copyright" unicode="&#x652;&#x64b;" horiz-adv-x="1708" 
d="M50 -482h1608v-311h-1608v311zM834 -384q-13 -8 -27.5 -16.5t-30.5 -15.5t-31 -12t-30 -5q-19 0 -34 12.5t-27 40.5q-11 -8 -19 -13t-15.5 -9.5t-15.5 -7.5t-18 -6q-12 -4 -20 -4q-11 0 -20.5 7t-9.5 21q0 4 1.5 9t3.5 10q11 25 30 47.5t42.5 39.5t48 27t46.5 10
q17 0 30 -10t13 -32q0 -8 -6 -18.5t-17 -22.5q-13 -12 -22 -27.5t-9 -28.5q0 -9 5.5 -13t14.5 -4q13 0 30.5 6t34.5 14t31.5 15.5t20.5 11.5q5 23 20 42.5t34.5 33.5t39.5 22.5t35 8.5q9 0 12.5 -3.5t3.5 -7.5q0 -7 -6.5 -13.5t-18.5 -7.5q-12 -4 -27.5 -11.5t-29 -18.5
t-23 -25t-9.5 -32q0 -20 10 -28t26 -8t36.5 6t39.5 14.5t35.5 17t25.5 13.5q0 22 12 43.5t30 38.5t41 27t45 10q13 0 22 -3t13.5 -7t6.5 -9t2 -9q0 -16 -18 -32t-41 -30.5t-45.5 -25t-32.5 -15.5q10 -14 25 -20.5t35 -6.5q19 0 40 5t43 14.5t43 22t40 26.5q12 9 23.5 20
t24.5 20q2 2 7.5 5t12 6.5t13.5 5.5t12 2q10 0 10 -8q0 -3 -2.5 -10t-6.5 -14q-10 -28 -15.5 -46t-7.5 -29q0 -3 4 -3t12 4t18.5 10t21 13.5t19.5 14.5q3 2 14.5 10t26.5 17t29.5 16t23.5 7q7 0 7 -7q-1 -18 -1 -35q0 -8 0.5 -15.5t2.5 -13.5t6 -9.5t11 -3.5q10 0 19 3.5
t17 8.5t15.5 11t16.5 11l5 -12q-7 -6 -18 -16t-24 -19.5t-26.5 -16.5t-25.5 -7q-9 0 -15.5 3.5t-9.5 9t-4 12t-1 11.5q0 6 0.5 12t0.5 11q0 6 -2 12.5t-9 6.5q-6 0 -17 -6t-24 -15t-27.5 -19t-29.5 -19t-28.5 -15t-24.5 -6q-7 1 -13.5 4.5t-6.5 11.5q0 14 2.5 27.5
t11.5 38.5q0 1 -9.5 -6t-26.5 -17.5t-39.5 -22.5t-47.5 -23t-51 -18t-51 -7t-47 10t-31 29q-11 -5 -28.5 -14t-38.5 -17t-42.5 -14t-40.5 -6q-21 0 -37.5 10t-22.5 38zM317 -132q5 22 15.5 39t28.5 17q6 0 12 -2.5t6 -10.5q0 -6 -5 -15.5t-10 -17.5l-60 -118q65 3 129 22
t116 60q22 19 38 26.5t27 7.5q15 0 15 -13q0 -12 -14 -29.5t-45 -33.5q-20 -21 -38.5 -44t-33.5 -50.5t-24.5 -59.5t-12.5 -70q0 -12 -9 -12q-8 0 -11.5 8t-3.5 28q0 45 14 86.5t35 76.5q-47 -15 -95.5 -22t-99.5 -7l-49 -99q-9 -19 -24 -33t-35 -14q-15 0 -31 11.5
t-28.5 30t-21.5 42t-9 47.5q0 21 10.5 35t33.5 14q4 0 7.5 -0.5t7.5 -1.5q29 -3 57.5 -6t58.5 -3zM674 -767h56v197l196 -197h67v259h-56v-197l-193 197h-70v-259zM1047 -767h265v47h-204v66h184v47h-184v53h198v46h-259v-259zM1351 -508v-47h112v-212h55v212h113v47h-280z
M257 -265q-66 2 -132 13q-8 -6 -8 -22q0 -14 6 -32t16 -34.5t22 -28t25 -11.5q9 0 17.5 7.5t16.5 25.5zM723 -278q-3 1 -6 1h-6q-23 0 -44 -10.5t-40 -27t-34.5 -36t-26.5 -37.5q25 0 47.5 10t42 26t36.5 35.5t31 38.5zM536 -690v-77h78v77h-78zM1173 -258q-31 -3 -61 -23.5
t-48 -61.5q25 11 45.5 21.5t36 20.5t24 18.5t8.5 15.5q0 6 -5 9zM699 2011h1l2 -2v-209h1q96 68 234 68q176 0 345 -106q43 -27 97 -73q54 -52 70 -72q18 -20 18 -22l-1 -1q-1 0 -75 74q-59 53 -97 76q-47 31 -97 53q-127 56 -253 56q-148 0 -242 -75v-109l1 -420
q33 -45 85 -104q83 -89 165 -164l126 -117v0q16 4 30 4q34 0 88 -29q29 -13 44 -13q16 0 23 14v6q0 37 -149 177q-98 93 -158 147q-49 43 -130 124q-63 67 -76 91q-23 35 -23 63q0 43 48 58q9 2 17 2q22 0 65 -22q22 -10 38 -10h4q26 0 70 40l81 74q8 2 55 7v0q3 0 4 -2
q-1 -3 -24 -23l-107 -100q-37 -41 -37 -60q0 -3 3 -4h2q21 2 57 30q20 16 117 107q49 8 56 8q3 -1 3 -2v-2q-3 -4 -126 -116q-58 -54 -58 -86v-1h1q12 5 36 8q56 32 75 90q4 14 7 14q8 7 38 15l5 1h1q3 0 3 -3q-14 -36 -14 -65v-8l2 -20v0q38 6 60 25q1 0 35 34
q51 41 112 41q71 0 131 -59v0h-1q-38 33 -68 43q-27 9 -53 9h-1q-57 0 -98 -40q-23 -26 -23 -61q0 -26 13 -52l2 -1q9 6 9 16q0 8 -14 15q-8 7 -8 23q0 13 4 13q34 13 41 13h1q7 0 7 -16q0 -65 -69 -100q-6 -2 -9 -2q-14 0 -20 55v9q0 24 9 46h-1q-10 -7 -31 -14
q-20 -4 -27 -4v-1q9 -56 60 -128q26 -38 123 -144q90 -95 95 -102v-1q0 -6 -36 -6h-1q-17 0 -31 19l-166 178q-47 52 -104 109q-39 38 -80 38q-14 0 -50 -9l-4 -1h-4q-7 0 -9 10v2q2 25 25 59l1 1v1q-30 -4 -51 -9q-12 -4 -19 -4q-9 0 -10 11v0q0 20 23 58l5 6v0
q-18 -3 -34 -3q-42 0 -79 29q-12 7 -19 7q-13 0 -19 -17l-1 -8q0 -53 145 -190q43 -40 193 -178q55 -50 118 -113q86 -87 86 -130q0 -26 -28 -38q-9 -3 -21 -3q-30 0 -89 33q-39 18 -64 18h-3q-6 0 -22 -3v0q57 -58 74 -83q62 -78 62 -149q0 -58 -40 -86q-18 -9 -35 -9
q-37 0 -63 34q-3 5 -5 9v0q0 -9 -13 -47q-32 -82 -101 -119q-50 -27 -111 -27q-98 0 -159 76q-22 32 -26 79q0 2 1 2q-3 16 -5 43h-1v639q0 1 -19 30q-82 133 -82 255q0 138 90 243l11 12v186q0 10 7 17q26 38 31 43zM585 1533q0 -93 54 -183q10 -21 20 -35v421
q-74 -90 -74 -203zM1308 1719l1 -2v-2q-3 -10 -3 -22l1 -35q0 -33 -24 -33l-46 6q-4 0 -4 -7v-40q0 -21 -19 -28q-4 -2 -12 -2q-16 0 -16 4v3q3 11 3 17v0l-1 31q0 33 36 33l30 -1q7 1 7 7v41q0 18 16 26q18 4 31 4zM1102 1408q-25 -37 -61 -55v-1h5q35 0 70 -27v0v1
q-15 28 -15 64l2 18v0h-1zM1034 1319q4 0 4 -4q-4 -7 -4 -11v-4q0 -6 6 -46v-7q0 -18 -16 -24q-21 -5 -28 -5q-4 0 -5 3v1l2 9v1l-7 45v10q0 25 47 32h1zM1150 1199q4 0 4 -4q-3 -8 -3 -12v-1q0 -9 5 -46v-9q0 -23 -28 -27l-16 -1q-5 0 -5 3l2 8v4l-6 37q-1 6 -1 14v0
q0 21 25 29q16 5 23 5zM703 1166v-488v-83q0 -11 9 -51q9 -31 19 -45q27 -48 94 -72q31 -9 59 -9q80 0 137 66q18 24 28 48q14 37 14 46l3 18q-7 21 -18 92q-10 43 -20 67q-2 4 -2 8v3q0 12 22 36q2 2 3 2h1q7 0 23 -46q6 -15 13 -58q6 -61 12 -74q14 -38 52 -38q22 0 36 11
q8 8 8 22q0 59 -158 206q-19 18 -112 105q-47 43 -130 127q0 1 -25 27q-39 43 -68 80zM856 302q7 0 16 -21q1 -6 60 -60q62 -49 68 -78l2 -13q0 -28 -38 -57l-67 -55q-4 -5 -4 -9q0 -9 26 -30q57 -50 68 -63q16 -22 16 -47q0 -38 -50 -75l-5 -2q-10 0 -22 26q-19 24 -40 39
q-54 40 -61 64q-5 11 -5 24v3q0 39 65 96q26 25 26 32v2q0 9 -29 33l-60 55q-20 23 -20 48q0 24 25 54q19 27 27 33z" />
    <glyph glyph-name="afii57410" unicode="&#x622;" horiz-adv-x="438" arabic-form="isolated" 
d="M67 1100q0 19 7.5 36.5t20 30t29.5 20t37 7.5h125q19 0 36.5 -7.5t30 -20t20 -30t7.5 -36.5v-1012q0 -20 -7.5 -37t-20 -29.5t-30 -20t-36.5 -7.5h-125q-20 0 -37 7.5t-29.5 20t-20 29.5t-7.5 37v1012zM80 1249q-12 0 -20.5 8t-8.5 21v37q0 12 8.5 20t20.5 8h303
q11 0 19.5 -8t8.5 -20v-37q0 -13 -8.5 -21t-19.5 -8h-303z" />
    <glyph glyph-name="uniFE82" unicode="&#x622;" horiz-adv-x="467" arabic-form="final" 
d="M379 314h95v-314h-143q-128 0 -196.5 68t-68.5 221v811q0 19 7.5 36.5t20.5 30t30 20t36 7.5h125q40 0 67 -27.5t27 -66.5v-786zM80 1249q-12 0 -20.5 8t-8.5 21v37q0 12 8.5 20t20.5 8h303q11 0 19.5 -8t8.5 -20v-37q0 -13 -8.5 -21t-19.5 -8h-303z" />
    <glyph glyph-name="afii57411" unicode="&#x623;" horiz-adv-x="438" arabic-form="isolated" 
d="M67 1100q0 19 7.5 36.5t20 30t29.5 20t37 7.5h125q19 0 36.5 -7.5t30 -20t20 -30t7.5 -36.5v-1012q0 -20 -7.5 -37t-20 -29.5t-30 -20t-36.5 -7.5h-125q-20 0 -37 7.5t-29.5 20t-20 29.5t-7.5 37v1012zM132 1368v77q0 61 26.5 87.5t76.5 26.5h92q15 0 25.5 -10.5
t10.5 -26.5v-50q0 -15 -10.5 -25.5t-25.5 -10.5h-73v-68h73q15 0 25.5 -10.5t10.5 -25.5v-50q0 -16 -10.5 -26.5t-25.5 -10.5h-217q-16 0 -26.5 10.5t-10.5 26.5v50q0 15 10.5 25.5t26.5 10.5h22z" />
    <glyph glyph-name="uniFE84" unicode="&#x623;" horiz-adv-x="467" arabic-form="final" 
d="M379 314h95v-314h-143q-128 0 -196.5 68t-68.5 221v811q0 19 7.5 36.5t20.5 30t30 20t36 7.5h125q40 0 67 -27.5t27 -66.5v-786zM132 1368v77q0 61 26.5 87.5t76.5 26.5h92q15 0 25.5 -10.5t10.5 -26.5v-50q0 -15 -10.5 -25.5t-25.5 -10.5h-73v-68h73q15 0 25.5 -10.5
t10.5 -25.5v-50q0 -16 -10.5 -26.5t-25.5 -10.5h-217q-16 0 -26.5 10.5t-10.5 26.5v50q0 15 10.5 25.5t26.5 10.5h22z" />
    <glyph glyph-name="afii57412" unicode="&#x624;" horiz-adv-x="882" arabic-form="isolated" 
d="M183 -442q-38 4 -66 29.5t-28 64.5v126q0 19 7.5 36.5t20.5 30t30 20t36 7.5q45 0 97.5 -2t99.5 7t82 36.5t45 86.5h-177q-129 0 -197.5 68t-68.5 221v323q0 153 68.5 221t197.5 68h222q129 0 198 -68t68 -221l-2 -531q0 -140 -45.5 -244.5t-128.5 -171.5t-200 -94.5
t-259 -12.5zM309 1205v111q0 87 37.5 124.5t109.5 37.5h132q21 0 36 -15t15 -38v-71q0 -21 -15 -37t-36 -16h-104v-96h104q21 0 36 -15.5t15 -37.5v-69q0 -23 -15 -38t-36 -15h-310q-23 0 -38.5 15t-15.5 38v69q0 22 15.5 37.5t38.5 15.5h31zM378 314h127v275h-127v-275z
" />
    <glyph glyph-name="uniFE86" unicode="&#x624;" horiz-adv-x="911" arabic-form="final" 
d="M180 -442q-38 4 -66 29.5t-28 64.5v126q0 19 7.5 36.5t20.5 30t30 20t36 7.5q30 0 64 -1.5t68 -0.5t65.5 6.5t57.5 20t44.5 39.5t25.5 64h-178q-128 0 -196.5 68t-68.5 221v323q0 153 68.5 221t196.5 68h223q64 0 113 -16.5t83 -51.5t51 -90t17 -131l-1 -298h104v-314
h-108q-14 -119 -64 -208t-132 -145.5t-191.5 -79t-241.5 -9.5zM309 1205v111q0 87 37.5 124.5t109.5 37.5h132q21 0 36 -15t15 -38v-71q0 -21 -15 -37t-36 -16h-104v-96h104q21 0 36 -15.5t15 -37.5v-69q0 -23 -15 -38t-36 -15h-310q-23 0 -38.5 15t-15.5 38v69
q0 22 15.5 37.5t38.5 15.5h31zM375 314h127v275h-127v-275z" />
    <glyph glyph-name="afii57413" unicode="&#x625;" horiz-adv-x="438" arabic-form="isolated" 
d="M67 1100q0 19 7.5 36.5t20 30t29.5 20t37 7.5h125q19 0 36.5 -7.5t30 -20t20 -30t7.5 -36.5v-1012q0 -20 -7.5 -37t-20 -29.5t-30 -20t-36.5 -7.5h-125q-20 0 -37 7.5t-29.5 20t-20 29.5t-7.5 37v1012zM134 -303v76q0 61 26.5 87.5t76.5 26.5h92q15 0 25.5 -10t10.5 -26
v-50q0 -15 -10.5 -26t-25.5 -11h-73v-67h73q15 0 25.5 -11.5t10.5 -25.5v-49q0 -16 -10.5 -27t-25.5 -11h-217q-16 0 -26.5 11t-10.5 27v49q0 14 10.5 25.5t26.5 11.5h22z" />
    <glyph glyph-name="uniFE88" unicode="&#x625;" horiz-adv-x="467" arabic-form="final" 
d="M379 314h95v-314h-143q-128 0 -196.5 68t-68.5 221v811q0 19 7.5 36.5t20.5 30t30 20t36 7.5h125q40 0 67 -27.5t27 -66.5v-786zM134 -303v76q0 61 26.5 87.5t76.5 26.5h92q15 0 25.5 -10t10.5 -26v-50q0 -15 -10.5 -26t-25.5 -11h-73v-67h73q15 0 25.5 -11.5t10.5 -25.5
v-49q0 -16 -10.5 -27t-25.5 -11h-217q-16 0 -26.5 11t-10.5 27v49q0 14 10.5 25.5t26.5 11.5h22z" />
    <glyph glyph-name="afii57414" unicode="&#x626;" horiz-adv-x="1170" arabic-form="isolated" 
d="M1009 900q19 0 36.5 -7.5t30 -20t20 -30t7.5 -36.5v-125q0 -19 -7.5 -36t-20 -29.5t-30 -20t-36.5 -7.5l-160 1v-275h127q165 -7 130 -314q-13 -103 -59 -187t-116.5 -142.5t-161.5 -90t-194 -29.5q-97 2 -173 26t-133.5 66t-98 100t-65.5 127t-36.5 148t-11.5 162
q1 10 1.5 21.5t0.5 30.5v51v80q0 19 7.5 36.5t20 30t29.5 20t36 7.5h126q19 0 36.5 -7.5t30 -20t20 -30t7.5 -36.5v-182q0 -51 6.5 -105t29.5 -99t68.5 -75.5t123.5 -35.5q34 -2 68 6t61.5 25.5t47 43.5t25.5 59q-70 0 -120.5 20t-82.5 57.5t-47.5 91t-15.5 120.5v323
q0 153 68.5 221.5t196.5 67.5zM144 749v110q0 87 38 125t109 38h132q22 0 36.5 -15t14.5 -38v-71q0 -21 -14.5 -37t-36.5 -16h-105v-96h105q22 0 36.5 -15.5t14.5 -37.5v-70q0 -23 -14.5 -38t-36.5 -15h-310q-23 0 -38 15t-15 38v70q0 22 15 37.5t38 15.5h31z" />
    <glyph glyph-name="uniFE8A" unicode="&#x626;" horiz-adv-x="1200" arabic-form="final" 
d="M57 180v183q0 19 7.5 36.5t20.5 30t30 20t36 7.5h126q19 0 36.5 -7.5t30 -20t20 -30t7.5 -36.5v-182q0 -51 6 -105t29.5 -99t69 -75.5t123.5 -35.5q34 -2 68 6t61.5 25.5t47 43.5t24.5 59h-161q-19 0 -36 7.5t-30 20t-20.5 29.5t-7.5 37v126q0 19 7.5 36.5t20.5 30t30 20
t36 7.5h566v-314h-100q-13 -103 -59.5 -187t-117 -142.5t-161.5 -90t-194 -29.5q-145 3 -244 54.5t-159.5 137.5t-87 199t-25.5 238zM144 749v110q0 87 38 125t109 38h132q22 0 36.5 -15t14.5 -38v-71q0 -21 -14.5 -37t-36.5 -16h-105v-96h105q22 0 36.5 -15.5t14.5 -37.5
v-70q0 -23 -14.5 -38t-36.5 -15h-310q-23 0 -38 15t-15 38v70q0 22 15 37.5t38 15.5h31z" />
    <glyph glyph-name="uniFE8B" unicode="&#x626;" horiz-adv-x="528" arabic-form="initial" 
d="M-4 314h161v179q0 19 7.5 35.5t20 29t29.5 20t37 7.5h125q19 0 36 -7.5t30 -20t20.5 -29t7.5 -35.5v-204q0 -153 -68.5 -221t-197.5 -68h-208v314zM138 877v111q0 86 38 124t109 38h133q20 0 35 -15t15 -38v-71q0 -21 -15 -37t-35 -16h-105v-96h105q20 0 35 -15.5
t15 -37.5v-70q0 -23 -15 -38t-35 -15h-311q-23 0 -38 15t-15 38v70q0 22 15 37.5t38 15.5h31z" />
    <glyph glyph-name="uniFE8C" unicode="&#x626;" horiz-adv-x="518" arabic-form="medial" 
d="M418 314h102v-314h-523v314h107v179q0 19 7.5 35.5t20.5 29t30 20t37 7.5h125q19 0 36.5 -7.5t30 -20t20 -29t7.5 -35.5v-179zM136 877v111q0 86 37.5 124t109.5 38h131q22 0 36.5 -15t14.5 -38v-71q0 -21 -14.5 -37t-36.5 -16h-104v-96h104q22 0 36.5 -15.5t14.5 -37.5
v-70q0 -23 -14.5 -38t-36.5 -15h-310q-23 0 -38 15t-15 38v70q0 22 15 37.5t38 15.5h32z" />
    <glyph glyph-name="afii57415" unicode="&#x627;" horiz-adv-x="438" arabic-form="isolated" 
d="M67 1100q0 19 7.5 36.5t20 30t29.5 20t37 7.5h125q19 0 36.5 -7.5t30 -20t20 -30t7.5 -36.5v-1012q0 -20 -7.5 -37t-20 -29.5t-30 -20t-36.5 -7.5h-125q-20 0 -37 7.5t-29.5 20t-20 29.5t-7.5 37v1012z" />
    <glyph glyph-name="uniFE8E" unicode="&#x627;" horiz-adv-x="467" arabic-form="final" 
d="M379 314h95v-314h-143q-128 0 -196.5 68t-68.5 221v811q0 19 7.5 36.5t20.5 30t30 20t36 7.5h125q40 0 67 -27.5t27 -66.5v-786z" />
    <glyph glyph-name="afii57416" unicode="&#x628;" horiz-adv-x="1299" arabic-form="isolated" 
d="M365 314h563v491q0 19 7.5 36t20.5 29.5t30 20t36 7.5h126q19 0 36.5 -7.5t30 -20t20 -29.5t7.5 -36l-1 -516q0 -153 -68 -221t-196 -68h-659q-128 0 -197 68t-69 221v74q0 39 27.5 66t66.5 27h125q40 0 67 -27t27 -66v-49zM793 -276q0 -33 -12.5 -61.5t-33.5 -50
t-49.5 -34t-61.5 -12.5q-32 0 -60.5 12.5t-49.5 34t-33.5 50t-12.5 61.5q0 32 12.5 60.5t33.5 49.5t49.5 33t60.5 12q33 0 61.5 -12t49.5 -33t33.5 -49.5t12.5 -60.5z" />
    <glyph glyph-name="uniFE90" unicode="&#x628;" horiz-adv-x="1345" arabic-form="final" 
d="M793 -276q0 -33 -12.5 -61.5t-33.5 -50t-49.5 -34t-61.5 -12.5q-32 0 -60.5 12.5t-49.5 34t-33.5 50t-12.5 61.5q0 32 12.5 60.5t33.5 49.5t49.5 33t60.5 12q33 0 61.5 -12t49.5 -33t33.5 -49.5t12.5 -60.5zM364 314h570v491q0 19 7 36t20 29.5t29.5 20t36.5 7.5h125
q19 0 36 -7.5t30 -20t20.5 -29.5t7.5 -36v-491h103v-314h-1033q-129 0 -197.5 68t-68.5 221v254q0 39 27.5 66t66.5 27h125q19 0 36.5 -7t30.5 -20t20.5 -30t7.5 -36v-229z" />
    <glyph glyph-name="uniFE91" unicode="&#x628;" horiz-adv-x="473" arabic-form="initial" 
d="M-3 314h105v491q0 19 7.5 36t20 29.5t29.5 20t37 7.5h124q19 0 36 -7.5t30 -20t20.5 -29.5t7.5 -36v-516q0 -153 -68.5 -221t-196.5 -68h-152v314zM393 -276q0 -33 -12 -61.5t-33 -50t-49.5 -34t-61.5 -12.5q-32 0 -60.5 12.5t-49.5 34t-33.5 50t-12.5 61.5
q0 32 12.5 60.5t33.5 49.5t49.5 33t60.5 12q33 0 61.5 -12t49.5 -33t33 -49.5t12 -60.5z" />
    <glyph glyph-name="uniFE92" unicode="&#x628;" horiz-adv-x="518" arabic-form="medial" 
d="M418 314h102v-314h-523v314h107v491q0 19 7.5 36t20.5 29.5t30 20t37 7.5h125q19 0 36.5 -7.5t30 -20t20 -29.5t7.5 -36v-491zM418 -276q0 -33 -12.5 -61.5t-34 -50t-50 -34t-60.5 -12.5t-60.5 12.5t-50 34t-34 50t-12.5 61.5q0 32 12.5 60.5t34 49.5t50 33t60.5 12
t60.5 -12t50 -33t34 -49.5t12.5 -60.5z" />
    <glyph glyph-name="afii57506" unicode="&#x67e;" horiz-adv-x="1299" arabic-form="isolated" 
d="M365 314h563v491q0 19 7.5 36t20.5 29.5t30 20t36 7.5h126q19 0 36.5 -7.5t30 -20t20 -29.5t7.5 -36l-1 -516q0 -153 -68 -221t-196 -68h-659q-128 0 -197 68t-69 221v74q0 39 27.5 66t66.5 27h125q40 0 67 -27t27 -66v-49zM653 -338.5q-12 -28.5 -33 -50t-49.5 -34
t-61.5 -12.5q-32 0 -60.5 12.5t-49.5 34t-33.5 50t-12.5 60.5t12.5 60.5t33.5 50t49.5 34t60.5 12.5q33 0 61.5 -12.5t49.5 -34t33 -50t12 -60.5t-12 -60.5zM1012.5 -338.5q-12.5 -28.5 -33.5 -50t-49.5 -34t-60.5 -12.5q-33 0 -61.5 12.5t-49.5 34t-33.5 50t-12.5 60.5
t12.5 60.5t33.5 50t49.5 34t61.5 12.5q32 0 60.5 -12.5t49.5 -34t33.5 -50t12.5 -60.5t-12.5 -60.5zM827.5 -658.5q-12.5 -28.5 -33.5 -49.5t-49.5 -33t-60.5 -12t-60.5 12t-50 33t-34 49.5t-12.5 61.5t12.5 61.5t34 49.5t50 33.5t60.5 12.5t60.5 -12.5t49.5 -33.5
t33.5 -49.5t12.5 -61.5t-12.5 -61.5z" />
    <glyph glyph-name="uniFB57" unicode="&#x67e;" horiz-adv-x="1345" arabic-form="final" 
d="M364 314h570v491q0 19 7 36t20 29.5t29.5 20t36.5 7.5h125q19 0 36 -7.5t30 -20t20.5 -29.5t7.5 -36v-491h103v-314h-1033q-129 0 -197.5 68t-68.5 221v254q0 39 27.5 66t66.5 27h125q19 0 36.5 -7t30.5 -20t20.5 -30t7.5 -36v-229zM717 -338.5q-12 -28.5 -33 -50
t-49.5 -34t-61.5 -12.5q-32 0 -60.5 12.5t-49.5 34t-33.5 50t-12.5 60.5t12.5 60.5t33.5 50t49.5 34t60.5 12.5q33 0 61.5 -12.5t49.5 -34t33 -50t12 -60.5t-12 -60.5zM1076.5 -338.5q-12.5 -28.5 -33.5 -50t-49.5 -34t-60.5 -12.5q-33 0 -61.5 12.5t-49.5 34t-33.5 50
t-12.5 60.5t12.5 60.5t33.5 50t49.5 34t61.5 12.5q32 0 60.5 -12.5t49.5 -34t33.5 -50t12.5 -60.5t-12.5 -60.5zM891.5 -658.5q-12.5 -28.5 -33.5 -49.5t-49.5 -33t-60.5 -12t-60.5 12t-50 33t-34 49.5t-12.5 61.5t12.5 61.5t34 49.5t50 33.5t60.5 12.5t60.5 -12.5
t49.5 -33.5t33.5 -49.5t12.5 -61.5t-12.5 -61.5z" />
    <glyph glyph-name="uniFB58" unicode="&#x67e;" horiz-adv-x="752" arabic-form="initial" 
d="M-3 314h378v491q0 19 7.5 36t20 29.5t29.5 20t37 7.5h124q19 0 36 -7.5t30 -20t20.5 -29.5t7.5 -36v-516q0 -153 -68.5 -221t-196.5 -68h-425v314zM338 -338.5q-12 -28.5 -33 -50t-49.5 -34t-61.5 -12.5q-32 0 -60.5 12.5t-49.5 34t-33.5 50t-12.5 60.5t12.5 60.5
t33.5 50t49.5 34t60.5 12.5q33 0 61.5 -12.5t49.5 -34t33 -50t12 -60.5t-12 -60.5zM697.5 -338.5q-12.5 -28.5 -33.5 -50t-49.5 -34t-60.5 -12.5q-33 0 -61.5 12.5t-49.5 34t-33.5 50t-12.5 60.5t12.5 60.5t33.5 50t49.5 34t61.5 12.5q32 0 60.5 -12.5t49.5 -34t33.5 -50
t12.5 -60.5t-12.5 -60.5zM512.5 -658.5q-12.5 -28.5 -33.5 -49.5t-49.5 -33t-60.5 -12t-60.5 12t-50 33t-34 49.5t-12.5 61.5t12.5 61.5t34 49.5t50 33.5t60.5 12.5t60.5 -12.5t49.5 -33.5t33.5 -49.5t12.5 -61.5t-12.5 -61.5z" />
    <glyph glyph-name="uniFB59" unicode="&#x67e;" horiz-adv-x="746" arabic-form="medial" 
d="M657 314h102v-314h-762v314h346v491q0 19 7.5 36t20.5 29.5t30 20t37 7.5h125q19 0 36.5 -7.5t30 -20t20 -29.5t7.5 -36v-491zM332 -338.5q-12 -28.5 -33 -50t-49.5 -34t-61.5 -12.5q-32 0 -60.5 12.5t-49.5 34t-33.5 50t-12.5 60.5t12.5 60.5t33.5 50t49.5 34t60.5 12.5
q33 0 61.5 -12.5t49.5 -34t33 -50t12 -60.5t-12 -60.5zM691.5 -338.5q-12.5 -28.5 -33.5 -50t-49.5 -34t-60.5 -12.5q-33 0 -61.5 12.5t-49.5 34t-33.5 50t-12.5 60.5t12.5 60.5t33.5 50t49.5 34t61.5 12.5q32 0 60.5 -12.5t49.5 -34t33.5 -50t12.5 -60.5t-12.5 -60.5z
M506.5 -658.5q-12.5 -28.5 -33.5 -49.5t-49.5 -33t-60.5 -12t-60.5 12t-50 33t-34 49.5t-12.5 61.5t12.5 61.5t34 49.5t50 33.5t60.5 12.5t60.5 -12.5t49.5 -33.5t33.5 -49.5t12.5 -61.5t-12.5 -61.5z" />
    <glyph glyph-name="afii57418" unicode="&#x62a;" horiz-adv-x="1299" arabic-form="isolated" 
d="M365 314h563v491q0 19 7.5 36t20.5 29.5t30 20t36 7.5h126q19 0 36.5 -7.5t30 -20t20 -29.5t7.5 -36l-1 -516q0 -153 -68 -221t-196 -68h-659q-128 0 -197 68t-69 221v74q0 39 27.5 66t66.5 27h125q40 0 67 -27t27 -66v-49zM626 1173q0 -32 -12 -60.5t-33 -50t-49.5 -34
t-60.5 -12.5q-33 0 -61.5 12.5t-49.5 34t-33.5 50t-12.5 60.5t12.5 60.5t33.5 50t49.5 34t61.5 12.5q32 0 60.5 -12.5t49.5 -34t33 -50t12 -60.5zM987 1173q0 -32 -12.5 -60.5t-34 -50t-50 -34t-60.5 -12.5t-60.5 12.5t-50 34t-34 50t-12.5 60.5t12.5 60.5t34 50t50 34
t60.5 12.5t60.5 -12.5t50 -34t34 -50t12.5 -60.5z" />
    <glyph glyph-name="uniFE96" unicode="&#x62a;" horiz-adv-x="1345" arabic-form="final" 
d="M364 314h570v491q0 19 7 36t20 29.5t29.5 20t36.5 7.5h125q19 0 36 -7.5t30 -20t20.5 -29.5t7.5 -36v-491h103v-314h-1033q-129 0 -197.5 68t-68.5 221v254q0 39 27.5 66t66.5 27h125q19 0 36.5 -7t30.5 -20t20.5 -30t7.5 -36v-229zM987 1173q0 -32 -12.5 -60.5t-34 -50
t-50 -34t-60.5 -12.5t-60.5 12.5t-50 34t-34 50t-12.5 60.5t12.5 60.5t34 50t50 34t60.5 12.5t60.5 -12.5t50 -34t34 -50t12.5 -60.5zM626 1173q0 -32 -12 -60.5t-33 -50t-49.5 -34t-60.5 -12.5q-33 0 -61.5 12.5t-49.5 34t-33.5 50t-12.5 60.5t12.5 60.5t33.5 50t49.5 34
t61.5 12.5q32 0 60.5 -12.5t49.5 -34t33 -50t12 -60.5z" />
    <glyph glyph-name="uniFE97" unicode="&#x62a;" horiz-adv-x="767" arabic-form="initial" 
d="M-4 314h400v491q0 19 7.5 36t20 29.5t29.5 20t36 7.5h125q19 0 36.5 -7.5t30 -20t20 -29.5t7.5 -36v-516q0 -153 -68.5 -221t-196.5 -68h-447v314zM347 1173q0 -32 -12.5 -60.5t-33.5 -50t-49.5 -34t-60.5 -12.5q-33 0 -61.5 12.5t-49.5 34t-33.5 50t-12.5 60.5
t12.5 60.5t33.5 50t49.5 34t61.5 12.5q32 0 60.5 -12.5t49.5 -34t33.5 -50t12.5 -60.5zM706 1173q0 -32 -12.5 -60.5t-33.5 -50t-49.5 -34t-60.5 -12.5t-60.5 12.5t-50 34t-34 50t-12.5 60.5t12.5 60.5t34 50t50 34t60.5 12.5t60.5 -12.5t49.5 -34t33.5 -50t12.5 -60.5z" />
    <glyph glyph-name="uniFE98" unicode="&#x62a;" horiz-adv-x="752" arabic-form="medial" 
d="M533 314h225v-314h-758v314h219v491q0 19 7.5 36t20.5 29.5t30 20t37 7.5h124q20 0 37.5 -7.5t30 -20t20 -29.5t7.5 -36v-491zM357 1173q0 -32 -12.5 -60.5t-34 -50t-50 -34t-60.5 -12.5t-60.5 12.5t-50 34t-34 50t-12.5 60.5t12.5 60.5t34 50t50 34t60.5 12.5
t60.5 -12.5t50 -34t34 -50t12.5 -60.5zM716 1173q0 -32 -12.5 -60.5t-33.5 -50t-49.5 -34t-61.5 -12.5q-32 0 -60.5 12.5t-49.5 34t-33.5 50t-12.5 60.5t12.5 60.5t33.5 50t49.5 34t60.5 12.5q33 0 61.5 -12.5t49.5 -34t33.5 -50t12.5 -60.5z" />
    <glyph glyph-name="afii57419" unicode="&#x62b;" horiz-adv-x="1299" arabic-form="isolated" 
d="M365 314h563v491q0 19 7.5 36t20.5 29.5t30 20t36 7.5h126q19 0 36.5 -7.5t30 -20t20 -29.5t7.5 -36l-1 -516q0 -153 -68 -221t-196 -68h-659q-128 0 -197 68t-69 221v74q0 39 27.5 66t66.5 27h125q40 0 67 -27t27 -66v-49zM666 1173q0 -32 -12 -60.5t-33 -50t-49.5 -34
t-61.5 -12.5q-32 0 -60.5 12.5t-49.5 34t-33.5 50t-12.5 60.5t12.5 60.5t33.5 50t49.5 34t60.5 12.5q33 0 61.5 -12.5t49.5 -34t33 -50t12 -60.5zM1026 1173q0 -32 -12.5 -60.5t-33.5 -50t-49.5 -34t-60.5 -12.5q-33 0 -61.5 12.5t-49.5 34t-33.5 50t-12.5 60.5t12.5 60.5
t33.5 50t49.5 34t61.5 12.5q32 0 60.5 -12.5t49.5 -34t33.5 -50t12.5 -60.5zM841 1492q0 -33 -12.5 -61.5t-33.5 -49.5t-49.5 -33.5t-60.5 -12.5t-60.5 12.5t-50 33.5t-34 49.5t-12.5 61.5t12.5 61.5t34 49.5t50 33t60.5 12t60.5 -12t49.5 -33t33.5 -49.5t12.5 -61.5z" />
    <glyph glyph-name="uniFE9A" unicode="&#x62b;" horiz-adv-x="1345" arabic-form="final" 
d="M666 1173q0 -32 -12 -60.5t-33 -50t-49.5 -34t-61.5 -12.5q-32 0 -60.5 12.5t-49.5 34t-33.5 50t-12.5 60.5t12.5 60.5t33.5 50t49.5 34t60.5 12.5q33 0 61.5 -12.5t49.5 -34t33 -50t12 -60.5zM1026 1173q0 -32 -12.5 -60.5t-33.5 -50t-49.5 -34t-60.5 -12.5
q-33 0 -61.5 12.5t-49.5 34t-33.5 50t-12.5 60.5t12.5 60.5t33.5 50t49.5 34t61.5 12.5q32 0 60.5 -12.5t49.5 -34t33.5 -50t12.5 -60.5zM841 1492q0 -33 -12.5 -61.5t-33.5 -49.5t-49.5 -33.5t-60.5 -12.5t-60.5 12.5t-50 33.5t-34 49.5t-12.5 61.5t12.5 61.5t34 49.5
t50 33t60.5 12t60.5 -12t49.5 -33t33.5 -49.5t12.5 -61.5zM364 314h570v491q0 19 7 36t20 29.5t29.5 20t36.5 7.5h125q19 0 36 -7.5t30 -20t20.5 -29.5t7.5 -36v-491h103v-314h-1033q-129 0 -197.5 68t-68.5 221v254q0 39 27.5 66t66.5 27h125q19 0 36.5 -7t30.5 -20
t20.5 -30t7.5 -36v-229z" />
    <glyph glyph-name="uniFE9B" unicode="&#x62b;" horiz-adv-x="762" arabic-form="initial" 
d="M-4 314h395v491q0 19 7.5 36t20 29.5t29.5 20t37 7.5h125q19 0 36 -7.5t30 -20t20.5 -29.5t7.5 -36v-516q0 -153 -68.5 -221t-197.5 -68h-442v314zM337 1173q0 -32 -12.5 -60.5t-34 -50t-50 -34t-60.5 -12.5t-60.5 12.5t-50 34t-34 50t-12.5 60.5t12.5 60.5t34 50t50 34
t60.5 12.5t60.5 -12.5t50 -34t34 -50t12.5 -60.5zM696 1173q0 -32 -12.5 -60.5t-33.5 -50t-49.5 -34t-61.5 -12.5q-32 0 -60.5 12.5t-49.5 34t-33.5 50t-12.5 60.5t12.5 60.5t33.5 50t49.5 34t60.5 12.5q33 0 61.5 -12.5t49.5 -34t33.5 -50t12.5 -60.5zM512 1492
q0 -33 -12.5 -61.5t-34 -49.5t-50 -33.5t-60.5 -12.5q-33 0 -61.5 12.5t-49.5 33.5t-33.5 49.5t-12.5 61.5t12.5 61.5t33.5 49.5t49.5 33t61.5 12q32 0 60.5 -12t50 -33t34 -49.5t12.5 -61.5z" />
    <glyph glyph-name="uniFE9C" unicode="&#x62b;" horiz-adv-x="757" arabic-form="medial" 
d="M545 314h216v-314h-764v314h234v491q0 19 7.5 36t20.5 29.5t30 20t37 7.5h125q19 0 36.5 -7.5t30 -20t20 -29.5t7.5 -36v-491zM362 1173q0 -32 -12.5 -60.5t-33.5 -50t-49.5 -34t-60.5 -12.5q-33 0 -61.5 12.5t-49.5 34t-33 50t-12 60.5t12 60.5t33 50t49.5 34t61.5 12.5
q32 0 60.5 -12.5t49.5 -34t33.5 -50t12.5 -60.5zM721 1173q0 -32 -12 -60.5t-33 -50t-49.5 -34t-61.5 -12.5t-61.5 12.5t-49.5 34t-33 50t-12 60.5t12 60.5t33 50t49.5 34t61.5 12.5t61.5 -12.5t49.5 -34t33 -50t12 -60.5zM537 1492q0 -33 -12.5 -61.5t-34 -49.5t-50 -33.5
t-60.5 -12.5t-60.5 12.5t-49.5 33.5t-33.5 49.5t-12.5 61.5t12.5 61.5t33.5 49.5t49.5 33t60.5 12t60.5 -12t50 -33t34 -49.5t12.5 -61.5z" />
    <glyph glyph-name="afii57420" unicode="&#x62c;" horiz-adv-x="951" arabic-form="isolated" 
d="M459 406q35 5 71.5 4.5t71.5 -0.5v45q-10 59 -45 86.5t-82 36.5t-99.5 7t-97.5 -2q-19 0 -36 7.5t-30 20t-20.5 29.5t-7.5 37v126q0 38 28 63t66 30q132 13 241.5 -9.5t191 -78.5t131.5 -145t64 -208l2 -264q0 -20 -7.5 -37t-20 -29.5t-30 -20t-36.5 -7.5l-244 -1
q-26 0 -50.5 0.5t-47.5 -4.5q-48 -10 -82.5 -37t-45.5 -87v-50q8 -51 44 -85t89 -34q19 0 36 -7.5t30 -20t20.5 -30t7.5 -36.5v-126q0 -39 -28 -65.5t-66 -28.5q-13 -1 -25.5 -0.5t-26.5 2.5v-2q-108 21 -191 79q-57 39 -97 91.5t-63 111.5t-29 123t5 127t39 122.5t73 110.5
q56 63 131 102.5t166 53.5zM907 -149q0 -33 -12.5 -61.5t-33.5 -50t-49.5 -34t-60.5 -12.5t-60.5 12.5t-50 34t-34 50t-12.5 61.5q0 32 12.5 60.5t34 49.5t50 33t60.5 12t60.5 -12t49.5 -33t33.5 -49.5t12.5 -60.5z" />
    <glyph glyph-name="uniFE9E" unicode="&#x62c;" horiz-adv-x="1001" arabic-form="final" 
d="M475 -201q19 0 36.5 -7.5t30 -20t20 -30t7.5 -36.5v-126q0 -39 -27.5 -65.5t-66.5 -28.5q-65 -2 -126 20t-115 59q-58 39 -98 91.5t-63 111.5t-29 123t5 127t39 122.5t73 110.5q56 63 131.5 102.5t166.5 53.5q35 5 71 4.5t71 -0.5l1 45q-11 59 -46 86.5t-82 36.5t-99 7
t-97 -2q-40 0 -67 27.5t-27 66.5v126q0 38 27 63t67 30q132 13 241.5 -9.5t190.5 -78.5t131.5 -145t63.5 -208l2 -141h98v-314h-306q-20 0 -37 7.5t-29.5 21t-19.5 30.5t-7 37h-37q-25 0 -50 0.5t-48 -4.5q-24 -5 -45 -14t-37.5 -23.5t-28.5 -35.5t-18 -51v-50
q10 -53 45 -86t88 -33zM954 -276q0 -33 -12.5 -61.5t-33.5 -50t-49.5 -34t-60.5 -12.5t-60.5 12.5t-50 34t-34 50t-12.5 61.5q0 32 12.5 60.5t34 49.5t50 33t60.5 12t60.5 -12t49.5 -33t33.5 -49.5t12.5 -60.5z" />
    <glyph glyph-name="uniFE9F" unicode="&#x62c;" horiz-adv-x="1046" arabic-form="initial" 
d="M171 896q132 13 242 -9.5t191.5 -78.5t132 -145t63.5 -208l1 -141h103q19 0 36 -7.5t30 -20t20.5 -30t7.5 -36.5v-126q0 -20 -7.5 -37t-20.5 -29.5t-30 -20t-36 -7.5h-910v314h501v141q-7 39 -25.5 64t-44.5 39.5t-57.5 20t-65.5 6.5t-67.5 -0.5t-63.5 -1.5
q-20 0 -37 7.5t-29.5 20t-20 29.5t-7.5 37v126q0 38 27.5 63t66.5 30zM583 -276q0 -33 -12.5 -61.5t-33.5 -50t-49.5 -34t-60.5 -12.5q-33 0 -61.5 12.5t-49.5 34t-33 50t-12 61.5q0 32 12 60.5t33 49.5t49.5 33t61.5 12q32 0 60.5 -12t49.5 -33t33.5 -49.5t12.5 -60.5z" />
    <glyph glyph-name="uniFEA0" unicode="&#x62c;" horiz-adv-x="894" arabic-form="medial" 
d="M177 896q132 13 242 -9.5t191.5 -78.5t132 -145t63.5 -208l1 -141h106v-314h-913v314h501l1 141q-11 59 -46 86.5t-82 36.5t-99.5 7t-97.5 -2q-19 0 -36 7.5t-29.5 20t-20 29.5t-7.5 37v126q0 38 27.5 63t65.5 30zM583 -276q0 -33 -12.5 -61.5t-33.5 -50t-49.5 -34
t-60.5 -12.5q-33 0 -61.5 12.5t-49.5 34t-33 50t-12 61.5q0 32 12 60.5t33 49.5t49.5 33t61.5 12q32 0 60.5 -12t49.5 -33t33.5 -49.5t12.5 -60.5z" />
    <glyph glyph-name="afii57507" unicode="&#x686;" horiz-adv-x="971" arabic-form="isolated" 
d="M468 406q36 5 72.5 4.5t71.5 -0.5v45q-11 59 -46 86.5t-82 36.5t-99.5 7t-97.5 -2q-19 0 -36 7.5t-30 20t-20.5 29.5t-7.5 37v126q0 38 28 63t66 30q132 13 241.5 -9.5t191 -78.5t131.5 -145t63 -208l3 -264q0 -20 -7 -37t-20 -29.5t-30.5 -20t-36.5 -7.5l-244 -1
q-26 0 -50.5 0.5t-48.5 -4.5q-23 -5 -44 -14t-38 -23.5t-29 -35.5t-17 -51v-50q7 -40 25.5 -65t44.5 -39t40 -92t-61.5 -146.5t-156.5 -11.5q-58 39 -98 91.5t-63 111.5t-29 123t5 127t39 122.5t73 110.5q56 63 131.5 102.5t165.5 53.5zM638 -106q-8 -20 -23 -34.5
t-35 -23.5t-43 -9q-22 0 -42 9t-34.5 23.5t-23.5 34.5t-9 43q0 22 9 42t23.5 35t34.5 23.5t42 8.5q23 0 43 -8.5t35 -23.5t23 -35t8 -42q0 -23 -8 -43zM889.5 -106q-8.5 -20 -23 -34.5t-34.5 -23.5t-43 -9t-43 9t-34.5 23.5t-23.5 34.5t-9 43q0 22 9 42t23.5 35t34.5 23.5
t43 8.5t43 -8.5t34.5 -23.5t23 -35t8.5 -42q0 -23 -8.5 -43zM760 -329q-9 -20 -23.5 -35t-34.5 -23.5t-42 -8.5q-23 0 -43 8.5t-35 23.5t-23.5 35t-8.5 43t8.5 43t23.5 34.5t35 23.5t43 9q22 0 42 -9t34.5 -23.5t23.5 -34.5t9 -43t-9 -43z" />
    <glyph glyph-name="uniFB7B" unicode="&#x686;" horiz-adv-x="1005" arabic-form="final" 
d="M464 406q36 5 71.5 4.5t71.5 -0.5v45q-11 59 -46 86.5t-82 36.5t-99 7t-97 -2q-20 0 -37 7.5t-29.5 20t-20 29.5t-7.5 37v126q0 38 27.5 63t66.5 30q132 13 241 -9.5t190.5 -78.5t131.5 -145t63 -208l2 -141h99v-314h-305q-20 0 -37 7.5t-30 21t-20 30.5t-7 37h-36
q-26 0 -51.5 0.5t-48.5 -4.5q-47 -10 -82.5 -37.5t-45.5 -86.5v-50q7 -40 25.5 -65t60 -93t-35 -160.5t-158.5 -35.5q-57 39 -97 91.5t-63.5 111.5t-29 123t5 127t38.5 122.5t73 110.5q56 63 131.5 102.5t166.5 53.5zM710 -248q-8 -20 -23 -35t-35 -24t-43 -9q-22 0 -42 9
t-34.5 24t-23.5 35t-9 42t9 42t23.5 35t34.5 23.5t42 8.5q23 0 43 -8.5t35 -23.5t23 -35t8 -42t-8 -42zM961.5 -248q-8.5 -20 -23 -35t-34.5 -24t-43 -9t-43 9t-34.5 24t-23.5 35t-9 42t9 42t23.5 35t34.5 23.5t43 8.5t43 -8.5t34.5 -23.5t23 -35t8.5 -42t-8.5 -42z
M832 -472q-9 -20 -23.5 -35t-34.5 -23.5t-42 -8.5q-23 0 -43 8.5t-35 23.5t-23.5 35t-8.5 43t8.5 43t23.5 34.5t35 23.5t43 9q22 0 42 -9t34.5 -23.5t23.5 -34.5t9 -43t-9 -43z" />
    <glyph glyph-name="uniFB7C" unicode="&#x686;" horiz-adv-x="1046" arabic-form="initial" 
d="M171 896q132 13 242 -9.5t191.5 -78.5t132 -145t63.5 -208l1 -141h103q19 0 36 -7.5t30 -20t20.5 -30t7.5 -36.5v-126q0 -20 -7.5 -37t-20.5 -29.5t-30 -20t-36 -7.5h-910v314h501v141q-7 39 -25.5 64t-44.5 39.5t-57.5 20t-65.5 6.5t-67.5 -0.5t-63.5 -1.5
q-20 0 -37 7.5t-29.5 20t-20 29.5t-7.5 37v126q0 38 27.5 63t66.5 30zM444 -331.5q-12 -28.5 -33 -50t-49.5 -34t-61.5 -12.5q-32 0 -60.5 12.5t-49.5 34t-33.5 50t-12.5 60.5t12.5 60.5t33.5 50t49.5 34t60.5 12.5q33 0 61.5 -12.5t49.5 -34t33 -50t12 -60.5t-12 -60.5z
M803.5 -331.5q-12.5 -28.5 -33.5 -50t-49.5 -34t-60.5 -12.5q-33 0 -61.5 12.5t-49.5 34t-33.5 50t-12.5 60.5t12.5 60.5t33.5 50t49.5 34t61.5 12.5q32 0 60.5 -12.5t49.5 -34t33.5 -50t12.5 -60.5t-12.5 -60.5zM618.5 -651.5q-12.5 -28.5 -33.5 -49.5t-49.5 -33t-60.5 -12
t-60.5 12t-50 33t-34 49.5t-12.5 61.5t12.5 61.5t34 49.5t50 33.5t60.5 12.5t60.5 -12.5t49.5 -33.5t33.5 -49.5t12.5 -61.5t-12.5 -61.5z" />
    <glyph glyph-name="uniFB7D" unicode="&#x686;" horiz-adv-x="908" arabic-form="medial" 
d="M177 896q132 13 242 -9.5t191.5 -78.5t132 -145t63.5 -208l1 -141h106v-314h-913v314h501l1 141q-11 59 -46 86.5t-82 36.5t-99.5 7t-97.5 -2q-19 0 -36 7.5t-29.5 20t-20 29.5t-7.5 37v126q0 38 27.5 63t65.5 30zM414 -338.5q-12 -28.5 -33 -50t-49.5 -34t-61.5 -12.5
q-32 0 -60.5 12.5t-49.5 34t-33.5 50t-12.5 60.5t12.5 60.5t33.5 50t49.5 34t60.5 12.5q33 0 61.5 -12.5t49.5 -34t33 -50t12 -60.5t-12 -60.5zM773.5 -338.5q-12.5 -28.5 -33.5 -50t-49.5 -34t-60.5 -12.5q-33 0 -61.5 12.5t-49.5 34t-33.5 50t-12.5 60.5t12.5 60.5
t33.5 50t49.5 34t61.5 12.5q32 0 60.5 -12.5t49.5 -34t33.5 -50t12.5 -60.5t-12.5 -60.5zM588.5 -658.5q-12.5 -28.5 -33.5 -49.5t-49.5 -33t-60.5 -12t-60.5 12t-50 33t-34 49.5t-12.5 61.5t12.5 61.5t34 49.5t50 33.5t60.5 12.5t60.5 -12.5t49.5 -33.5t33.5 -49.5
t12.5 -61.5t-12.5 -61.5z" />
    <glyph glyph-name="afii57421" unicode="&#x62d;" horiz-adv-x="971" arabic-form="isolated" 
d="M468 406q36 5 72.5 4.5t71.5 -0.5v45q-11 59 -46 86.5t-82 36.5t-99.5 7t-97.5 -2q-19 0 -36 7.5t-30 20t-20.5 29.5t-7.5 37v126q0 38 28 63t66 30q132 13 241.5 -9.5t191 -78.5t131.5 -145t63 -208l3 -264q0 -20 -7 -37t-20 -29.5t-30.5 -20t-36.5 -7.5l-244 -1
q-26 0 -50.5 0.5t-48.5 -4.5q-23 -5 -44 -14t-38 -23.5t-29 -35.5t-17 -51v-50q7 -40 25.5 -65t44.5 -39t58 -20t65.5 -7t67.5 0.5t64 1.5q19 0 36 -7.5t29.5 -20t20 -30t7.5 -36.5v-125q0 -39 -27.5 -64t-65.5 -30q-133 -14 -242.5 8.5t-190.5 79.5q-58 39 -98 91.5
t-63 111.5t-29 123t5 127t39 122.5t73 110.5q56 63 131.5 102.5t165.5 53.5z" />
    <glyph glyph-name="uniFEA2" unicode="&#x62d;" horiz-adv-x="1005" arabic-form="final" 
d="M464 406q36 5 71.5 4.5t71.5 -0.5v45q-11 59 -46 86.5t-82 36.5t-99 7t-97 -2q-20 0 -37 7.5t-29.5 20t-20 29.5t-7.5 37v126q0 38 27.5 63t66.5 30q132 13 241 -9.5t190.5 -78.5t131.5 -145t63 -208l2 -141h99v-314h-305q-20 0 -37 7.5t-30 21t-20 30.5t-7 37h-36
q-26 0 -51.5 0.5t-48.5 -4.5q-47 -10 -82.5 -37.5t-45.5 -86.5v-50q7 -40 25.5 -65t45 -39t58 -20t65.5 -7t67.5 0.5t63.5 1.5q19 0 36.5 -7.5t30 -20t20 -30t7.5 -36.5v-125q0 -39 -28 -64t-66 -30q-133 -14 -242 8.5t-191 79.5q-57 39 -97 91.5t-63.5 111.5t-29 123t5 127
t38.5 122.5t73 110.5q56 63 131.5 102.5t166.5 53.5z" />
    <glyph glyph-name="uniFEA3" unicode="&#x62d;" horiz-adv-x="1046" arabic-form="initial" 
d="M171 896q132 13 242 -9.5t191.5 -78.5t132 -145t63.5 -208l1 -141h103q19 0 36 -7.5t30 -20t20.5 -30t7.5 -36.5v-126q0 -20 -7.5 -37t-20.5 -29.5t-30 -20t-36 -7.5h-910v314h501v141q-7 39 -25.5 64t-44.5 39.5t-57.5 20t-65.5 6.5t-67.5 -0.5t-63.5 -1.5
q-20 0 -37 7.5t-29.5 20t-20 29.5t-7.5 37v126q0 38 27.5 63t66.5 30z" />
    <glyph glyph-name="uniFEA4" unicode="&#x62d;" horiz-adv-x="908" arabic-form="medial" 
d="M177 896q132 13 242 -9.5t191.5 -78.5t132 -145t63.5 -208l1 -141h106v-314h-913v314h501l1 141q-11 59 -46 86.5t-82 36.5t-99.5 7t-97.5 -2q-19 0 -36 7.5t-29.5 20t-20 29.5t-7.5 37v126q0 38 27.5 63t65.5 30z" />
    <glyph glyph-name="afii57422" unicode="&#x62e;" horiz-adv-x="971" arabic-form="isolated" 
d="M468 406q36 5 72.5 4.5t71.5 -0.5v45q-11 59 -46 86.5t-82 36.5t-99.5 7t-97.5 -2q-19 0 -36 7.5t-30 20t-20.5 29.5t-7.5 37v126q0 38 28 63t66 30q132 13 241.5 -9.5t191 -78.5t131.5 -145t63 -208l3 -264q0 -20 -7 -37t-20 -29.5t-30.5 -20t-36.5 -7.5l-244 -1
q-26 0 -50.5 0.5t-48.5 -4.5q-23 -5 -44 -14t-38 -23.5t-29 -35.5t-17 -51v-50q7 -40 25.5 -65t44.5 -39t58 -20t65.5 -7t67.5 0.5t64 1.5q19 0 36 -7.5t29.5 -20t20 -30t7.5 -36.5v-125q0 -39 -27.5 -64t-65.5 -30q-133 -14 -242.5 8.5t-190.5 79.5q-58 39 -98 91.5
t-63 111.5t-29 123t5 127t39 122.5t73 110.5q56 63 131.5 102.5t165.5 53.5zM642 1188q0 -33 -12.5 -61.5t-33.5 -50t-49.5 -34t-61.5 -12.5q-32 0 -60.5 12.5t-49.5 34t-33.5 50t-12.5 61.5q0 32 12.5 60.5t33.5 49.5t49.5 33.5t60.5 12.5q33 0 61.5 -12.5t49.5 -33.5
t33.5 -49.5t12.5 -60.5z" />
    <glyph glyph-name="uniFEA6" unicode="&#x62e;" horiz-adv-x="1005" arabic-form="final" 
d="M464 406q36 5 71.5 4.5t71.5 -0.5v45q-11 59 -46 86.5t-82 36.5t-99 7t-97 -2q-20 0 -37 7.5t-29.5 20t-20 29.5t-7.5 37v126q0 38 27.5 63t66.5 30q132 13 241 -9.5t190.5 -78.5t131.5 -145t63 -208l2 -141h99v-314h-305q-20 0 -37 7.5t-30 21t-20 30.5t-7 37h-36
q-26 0 -51.5 0.5t-48.5 -4.5q-47 -10 -82.5 -37.5t-45.5 -86.5v-50q7 -40 25.5 -65t45 -39t58 -20t65.5 -7t67.5 0.5t63.5 1.5q19 0 36.5 -7.5t30 -20t20 -30t7.5 -36.5v-125q0 -39 -28 -64t-66 -30q-133 -14 -242 8.5t-191 79.5q-57 39 -97 91.5t-63.5 111.5t-29 123t5 127
t38.5 122.5t73 110.5q56 63 131.5 102.5t166.5 53.5zM629 1188q0 -33 -12.5 -61.5t-33.5 -50t-49.5 -34t-61.5 -12.5q-32 0 -60.5 12.5t-49.5 34t-33.5 50t-12.5 61.5q0 32 12.5 60.5t33.5 49.5t49.5 33.5t60.5 12.5q33 0 61.5 -12.5t49.5 -33.5t33.5 -49.5t12.5 -60.5z" />
    <glyph glyph-name="uniFEA7" unicode="&#x62e;" horiz-adv-x="1046" arabic-form="initial" 
d="M171 896q132 13 242 -9.5t191.5 -78.5t132 -145t63.5 -208l1 -141h103q19 0 36 -7.5t30 -20t20.5 -30t7.5 -36.5v-126q0 -20 -7.5 -37t-20.5 -29.5t-30 -20t-36 -7.5h-910v314h501v141q-7 39 -25.5 64t-44.5 39.5t-57.5 20t-65.5 6.5t-67.5 -0.5t-63.5 -1.5
q-20 0 -37 7.5t-29.5 20t-20 29.5t-7.5 37v126q0 38 27.5 63t66.5 30zM528 1188q0 -33 -12.5 -61.5t-33.5 -50t-49.5 -34t-61.5 -12.5q-32 0 -60.5 12.5t-49.5 34t-33.5 50t-12.5 61.5q0 32 12.5 60.5t33.5 49.5t49.5 33.5t60.5 12.5q33 0 61.5 -12.5t49.5 -33.5t33.5 -49.5
t12.5 -60.5z" />
    <glyph glyph-name="uniFEA8" unicode="&#x62e;" horiz-adv-x="908" arabic-form="medial" 
d="M177 896q132 13 242 -9.5t191.5 -78.5t132 -145t63.5 -208l1 -141h106v-314h-913v314h501l1 141q-11 59 -46 86.5t-82 36.5t-99.5 7t-97.5 -2q-19 0 -36 7.5t-29.5 20t-20 29.5t-7.5 37v126q0 38 27.5 63t65.5 30zM528 1188q0 -33 -12.5 -61.5t-33.5 -50t-49.5 -34
t-61.5 -12.5q-32 0 -60.5 12.5t-49.5 34t-33.5 50t-12.5 61.5q0 32 12.5 60.5t33.5 49.5t49.5 33.5t60.5 12.5q33 0 61.5 -12.5t49.5 -33.5t33.5 -49.5t12.5 -60.5z" />
    <glyph glyph-name="afii57423" unicode="&#x62f;" horiz-adv-x="766" arabic-form="isolated" 
d="M391 314v275h-242q-20 0 -37 7t-30 20t-20.5 29.5t-7.5 36.5v125q0 19 7.5 36.5t20.5 30t30 20t37 7.5h290q129 0 197.5 -68t68.5 -221v-323q0 -153 -68.5 -221t-197.5 -68h-290q-20 0 -37 7.5t-30 20t-20.5 29.5t-7.5 37v126q0 19 7.5 36.5t20.5 30t30 20t37 7.5h242z
" />
    <glyph glyph-name="uniFEAA" unicode="&#x62f;" horiz-adv-x="802" arabic-form="final" 
d="M808 314v-314h-652q-20 0 -37 7.5t-29.5 20t-20 29.5t-7.5 37v126q0 19 7.5 36.5t20 30t29.5 20t37 7.5h237l-1 275h-236q-39 0 -66.5 27t-27.5 66v125q0 19 7.5 36.5t20 30t29.5 20t37 7.5h285q128 0 196.5 -68t68.5 -221v-298h102z" />
    <glyph glyph-name="afii57424" unicode="&#x630;" horiz-adv-x="766" arabic-form="isolated" 
d="M391 314v275h-242q-20 0 -37 7t-30 20t-20.5 29.5t-7.5 36.5v125q0 19 7.5 36.5t20.5 30t30 20t37 7.5h290q129 0 197.5 -68t68.5 -221v-323q0 -153 -68.5 -221t-197.5 -68h-290q-20 0 -37 7.5t-30 20t-20.5 29.5t-7.5 37v126q0 19 7.5 36.5t20.5 30t30 20t37 7.5h242z
M498 1188q0 -33 -12.5 -61.5t-33.5 -50t-49.5 -34t-61.5 -12.5q-32 0 -60.5 12.5t-49.5 34t-33.5 50t-12.5 61.5q0 32 12.5 60.5t33.5 49.5t49.5 33.5t60.5 12.5q33 0 61.5 -12.5t49.5 -33.5t33.5 -49.5t12.5 -60.5z" />
    <glyph glyph-name="uniFEAC" unicode="&#x630;" horiz-adv-x="802" arabic-form="final" 
d="M808 314v-314h-652q-20 0 -37 7.5t-29.5 20t-20 29.5t-7.5 37v126q0 19 7.5 36.5t20 30t29.5 20t37 7.5h237l-1 275h-236q-39 0 -66.5 27t-27.5 66v125q0 19 7.5 36.5t20 30t29.5 20t37 7.5h285q128 0 196.5 -68t68.5 -221v-298h102zM513 1188q0 -33 -12.5 -61.5
t-33.5 -50t-49.5 -34t-60.5 -12.5t-60.5 12.5t-50 34t-34 50t-12.5 61.5q0 32 12.5 60.5t34 49.5t50 33.5t60.5 12.5t60.5 -12.5t49.5 -33.5t33.5 -49.5t12.5 -60.5z" />
    <glyph glyph-name="afii57425" unicode="&#x631;" horiz-adv-x="670" arabic-form="isolated" 
d="M124 -128q30 2 58 9t50.5 21.5t38.5 38t22 59.5v813q0 38 26.5 63t64.5 25h141q40 0 61 -25t21 -63l-2 -732q0 -111 -30 -200.5t-85 -155t-133 -107t-175 -56.5q-23 -3 -44 -4.5t-44 0.5q-38 4 -66 29.5t-28 64.5v126q0 19 7.5 36.5t20.5 30t30 20t36 7.5h30z" />
    <glyph glyph-name="uniFEAE" unicode="&#x631;" horiz-adv-x="684" arabic-form="final" 
d="M128 -128q30 2 57.5 9t50 21.5t38.5 38t22 59.5v807q0 19 7.5 36t20 30t30 20.5t37.5 7.5h125q19 0 36 -7.5t30 -20.5t20.5 -30t7.5 -36l-4 -493h89v-314h-95q-11 -93 -44 -168t-86.5 -130.5t-125 -90.5t-159.5 -49q-23 -3 -44 -4.5t-44 0.5q-38 4 -66 29.5t-28 64.5v126
q0 39 27.5 66.5t66.5 27.5h31z" />
    <glyph glyph-name="afii57426" unicode="&#x632;" horiz-adv-x="670" arabic-form="isolated" 
d="M124 -128q30 2 58 9t50.5 21.5t38.5 38t22 59.5v813q0 38 26.5 63t64.5 25h141q40 0 61 -25t21 -63l-2 -732q0 -111 -30 -200.5t-85 -155t-133 -107t-175 -56.5q-23 -3 -44 -4.5t-44 0.5q-38 4 -66 29.5t-28 64.5v126q0 19 7.5 36.5t20.5 30t30 20t36 7.5h30zM602 1176
q0 -32 -12.5 -60.5t-33.5 -50t-49.5 -34t-61.5 -12.5q-32 0 -60.5 12.5t-49.5 34t-33.5 50t-12.5 60.5q0 33 12.5 61.5t33.5 49.5t49.5 33t60.5 12q33 0 61.5 -12t49.5 -33t33.5 -49.5t12.5 -61.5z" />
    <glyph glyph-name="uniFEB0" unicode="&#x632;" horiz-adv-x="693" arabic-form="final" 
d="M128 -128q30 2 57.5 9t50 21.5t38.5 38t22 59.5v807q0 19 7.5 36t20 30t30 20.5t37.5 7.5h125q19 0 36 -7.5t30 -20.5t20.5 -30t7.5 -36l-4 -493h89v-314h-95q-11 -93 -44 -168t-86.5 -130.5t-125 -90.5t-159.5 -49q-23 -3 -44 -4.5t-44 0.5q-38 4 -66 29.5t-28 64.5v126
q0 39 27.5 66.5t66.5 27.5h31zM602 1176q0 -32 -12.5 -60.5t-33.5 -50t-49.5 -34t-61.5 -12.5q-32 0 -60.5 12.5t-49.5 34t-33.5 50t-12.5 60.5q0 33 12.5 61.5t33.5 49.5t49.5 33t60.5 12q33 0 61.5 -12t49.5 -33t33.5 -49.5t12.5 -61.5z" />
    <glyph glyph-name="afii57508" unicode="&#x698;" horiz-adv-x="670" arabic-form="isolated" 
d="M124 -128q30 2 58 9t50.5 21.5t38.5 38t22 59.5v813q0 38 26.5 63t64.5 25h141q40 0 61 -25t21 -63l-2 -732q0 -111 -30 -200.5t-85 -155t-133 -107t-175 -56.5q-23 -3 -44 -4.5t-44 0.5q-38 4 -66 29.5t-28 64.5v126q0 19 7.5 36.5t20.5 30t30 20t36 7.5h30zM397 1179
q0 -32 -12 -60.5t-33 -50t-49.5 -34t-61.5 -12.5q-32 0 -60.5 12.5t-49.5 34t-33.5 50t-12.5 60.5t12.5 60.5t33.5 50t49.5 34t60.5 12.5q33 0 61.5 -12.5t49.5 -34t33 -50t12 -60.5zM757 1179q0 -32 -12.5 -60.5t-33.5 -50t-49.5 -34t-60.5 -12.5q-33 0 -61.5 12.5
t-49.5 34t-33.5 50t-12.5 60.5t12.5 60.5t33.5 50t49.5 34t61.5 12.5q32 0 60.5 -12.5t49.5 -34t33.5 -50t12.5 -60.5zM572 1498q0 -33 -12.5 -61.5t-33.5 -49.5t-49.5 -33.5t-60.5 -12.5t-60.5 12.5t-50 33.5t-34 49.5t-12.5 61.5t12.5 61.5t34 49.5t50 33t60.5 12
t60.5 -12t49.5 -33t33.5 -49.5t12.5 -61.5z" />
    <glyph glyph-name="uniFB8B" unicode="&#x698;" horiz-adv-x="684" arabic-form="final" 
d="M128 -128q30 2 57.5 9t50 21.5t38.5 38t22 59.5v807q0 19 7.5 36t20 30t30 20.5t37.5 7.5h125q19 0 36 -7.5t30 -20.5t20.5 -30t7.5 -36l-4 -493h89v-314h-95q-11 -93 -44 -168t-86.5 -130.5t-125 -90.5t-159.5 -49q-23 -3 -44 -4.5t-44 0.5q-38 4 -66 29.5t-28 64.5v126
q0 39 27.5 66.5t66.5 27.5h31zM397 1179q0 -32 -12 -60.5t-33 -50t-49.5 -34t-61.5 -12.5q-32 0 -60.5 12.5t-49.5 34t-33.5 50t-12.5 60.5t12.5 60.5t33.5 50t49.5 34t60.5 12.5q33 0 61.5 -12.5t49.5 -34t33 -50t12 -60.5zM757 1179q0 -32 -12.5 -60.5t-33.5 -50
t-49.5 -34t-60.5 -12.5q-33 0 -61.5 12.5t-49.5 34t-33.5 50t-12.5 60.5t12.5 60.5t33.5 50t49.5 34t61.5 12.5q32 0 60.5 -12.5t49.5 -34t33.5 -50t12.5 -60.5zM572 1498q0 -33 -12.5 -61.5t-33.5 -49.5t-49.5 -33.5t-60.5 -12.5t-60.5 12.5t-50 33.5t-34 49.5t-12.5 61.5
t12.5 61.5t34 49.5t50 33t60.5 12t60.5 -12t49.5 -33t33.5 -49.5t12.5 -61.5z" />
    <glyph glyph-name="afii57427" unicode="&#x633;" horiz-adv-x="2054" arabic-form="isolated" 
d="M1567 314h129v491q0 19 7 36t20 29.5t30 20t37 7.5h125q19 0 36.5 -7.5t30 -20t20 -29.5t7.5 -36v-516q0 -153 -69 -221t-197 -68h-629q-17 -97 -65.5 -180t-120.5 -143.5t-163 -94t-193 -31.5q-145 3 -244.5 54.5t-160.5 137.5t-87 199t-25 238v21q0 12 0.5 31.5
t0.5 50.5v80q0 39 27 66.5t67 27.5h125q19 0 36 -7.5t30 -20t20.5 -30t7.5 -36.5v-182q0 -34 2.5 -70.5t10.5 -71.5t23 -66.5t40.5 -55.5t63 -37.5t89.5 -13.5q76 0 120 28t65 70.5t25.5 92t2.5 93.5v655q0 19 7.5 36t20 29.5t29.5 20t37 7.5h126q19 0 36 -7.5t30 -20
t20 -29.5t7 -36v-491h130v491q0 19 7 36t20 29.5t30 20t37 7.5h125q19 0 36 -7.5t30 -20t20.5 -29.5t7.5 -36v-491z" />
    <glyph glyph-name="uniFEB2" unicode="&#x633;" horiz-adv-x="2101" arabic-form="final" 
d="M1568 314h128v491q0 19 7.5 36t20 29.5t29.5 20t37 7.5h126q19 0 36 -7.5t30 -20t20.5 -29.5t7.5 -36v-491h98v-314h-992q-17 -97 -65.5 -180t-120.5 -143.5t-163.5 -94t-194.5 -31.5q-145 3 -244 54.5t-159.5 137.5t-87 199t-25.5 238v21q0 12 0.5 31.5t0.5 50.5v80
q0 39 27 66.5t67 27.5h125q19 0 36 -7.5t30 -20t20.5 -30t7.5 -36.5l1 -182q-1 -34 1.5 -70.5t10.5 -71.5t23 -66.5t41 -55.5t63 -37.5t89 -13.5q76 0 120 28t65.5 70.5t25.5 92t2 93.5v655q0 19 7.5 36t20 29.5t29.5 20t37 7.5h125q19 0 36.5 -7.5t30.5 -20t20.5 -29.5
t7.5 -36l-1 -491h130l-1 491q0 19 7.5 36t20 29.5t29.5 20t37 7.5h126q19 0 36 -7.5t30 -20t20.5 -29.5t7.5 -36v-491z" />
    <glyph glyph-name="uniFEB3" unicode="&#x633;" horiz-adv-x="1359" arabic-form="initial" 
d="M852 314h128v491q0 19 7.5 36t20 29.5t29.5 20t37 7.5h126q19 0 36 -7.5t30 -20t20.5 -29.5t7.5 -36v-516q0 -153 -69 -221t-197 -68h-1035v314h104v491q0 19 7.5 36t20 29.5t29.5 20t37 7.5h126q19 0 36 -7.5t30 -20t20.5 -29.5t7.5 -36v-491h128v491q0 19 7 36t20 29.5
t29.5 20t36.5 7.5h126q19 0 36 -7.5t30 -20t20.5 -29.5t7.5 -36v-491z" />
    <glyph glyph-name="uniFEB4" unicode="&#x633;" horiz-adv-x="1399" arabic-form="medial" 
d="M853 314h129v491q0 19 7.5 36t20 29.5t29.5 20t37 7.5h125q20 0 37 -7.5t30 -20t20 -29.5t7 -36v-491h108v-314h-1407v314h102v491q0 19 7.5 36t20.5 29.5t30 20t37 7.5h125q19 0 36.5 -7.5t30 -20t20 -29.5t7.5 -36v-491h128v491q0 19 7.5 36t20 29.5t29.5 20t37 7.5
h126q19 0 36 -7.5t29.5 -20t20 -29.5t7.5 -36v-491z" />
    <glyph glyph-name="afii57428" unicode="&#x634;" horiz-adv-x="2054" arabic-form="isolated" 
d="M1567 314h129v491q0 19 7 36t20 29.5t30 20t37 7.5h125q19 0 36.5 -7.5t30 -20t20 -29.5t7.5 -36v-516q0 -153 -69 -221t-197 -68h-629q-17 -97 -65.5 -180t-120.5 -143.5t-163 -94t-193 -31.5q-145 3 -244.5 54.5t-160.5 137.5t-87 199t-25 238v21q0 12 0.5 31.5
t0.5 50.5v80q0 39 27 66.5t67 27.5h125q19 0 36 -7.5t30 -20t20.5 -30t7.5 -36.5v-182q0 -34 2.5 -70.5t10.5 -71.5t23 -66.5t40.5 -55.5t63 -37.5t89.5 -13.5q76 0 120 28t65 70.5t25.5 92t2.5 93.5v655q0 19 7.5 36t20 29.5t29.5 20t37 7.5h126q19 0 36 -7.5t30 -20
t20 -29.5t7 -36v-491h130v491q0 19 7 36t20 29.5t30 20t37 7.5h125q19 0 36 -7.5t30 -20t20.5 -29.5t7.5 -36v-491zM1380 1173q0 -32 -12.5 -60.5t-34 -50t-50 -34t-60.5 -12.5t-60.5 12.5t-49.5 34t-33.5 50t-12.5 60.5t12.5 60.5t33.5 50t49.5 34t60.5 12.5t60.5 -12.5
t50 -34t34 -50t12.5 -60.5zM1739 1173q0 -32 -12.5 -60.5t-33.5 -50t-49.5 -34t-60.5 -12.5q-33 0 -61.5 12.5t-49.5 34t-33.5 50t-12.5 60.5t12.5 60.5t33.5 50t49.5 34t61.5 12.5q32 0 60.5 -12.5t49.5 -34t33.5 -50t12.5 -60.5zM1555 1492q0 -33 -12.5 -61.5t-34 -49.5
t-50 -33.5t-60.5 -12.5q-33 0 -61.5 12.5t-49.5 33.5t-33.5 49.5t-12.5 61.5t12.5 61.5t33.5 49.5t49.5 33t61.5 12q32 0 60.5 -12t50 -33t34 -49.5t12.5 -61.5z" />
    <glyph glyph-name="uniFEB6" unicode="&#x634;" horiz-adv-x="2101" arabic-form="final" 
d="M1568 314h128v491q0 19 7.5 36t20 29.5t29.5 20t37 7.5h126q19 0 36 -7.5t30 -20t20.5 -29.5t7.5 -36v-491h98v-314h-992q-17 -97 -65.5 -180t-120.5 -143.5t-163.5 -94t-194.5 -31.5q-145 3 -244 54.5t-159.5 137.5t-87 199t-25.5 238v21q0 12 0.5 31.5t0.5 50.5v80
q0 39 27 66.5t67 27.5h125q19 0 36 -7.5t30 -20t20.5 -30t7.5 -36.5l1 -182q-1 -34 1.5 -70.5t10.5 -71.5t23 -66.5t41 -55.5t63 -37.5t89 -13.5q76 0 120 28t65.5 70.5t25.5 92t2 93.5v655q0 19 7.5 36t20 29.5t29.5 20t37 7.5h125q19 0 36.5 -7.5t30.5 -20t20.5 -29.5
t7.5 -36l-1 -491h130l-1 491q0 19 7.5 36t20 29.5t29.5 20t37 7.5h126q19 0 36 -7.5t30 -20t20.5 -29.5t7.5 -36v-491zM1389 1173q0 -32 -12.5 -60.5t-34 -50t-50 -34t-60.5 -12.5t-60.5 12.5t-50 34t-34 50t-12.5 60.5t12.5 60.5t34 50t50 34t60.5 12.5t60.5 -12.5t50 -34
t34 -50t12.5 -60.5zM1748 1173q0 -32 -12.5 -60.5t-34 -50t-50 -34t-60.5 -12.5t-60.5 12.5t-49.5 34t-33.5 50t-12.5 60.5t12.5 60.5t33.5 50t49.5 34t60.5 12.5t60.5 -12.5t50 -34t34 -50t12.5 -60.5zM1563 1492q0 -33 -12.5 -61.5t-33.5 -49.5t-49.5 -33.5t-61.5 -12.5
q-32 0 -60.5 12.5t-49.5 33.5t-33.5 49.5t-12.5 61.5t12.5 61.5t33.5 49.5t49.5 33t60.5 12q33 0 61.5 -12t49.5 -33t33.5 -49.5t12.5 -61.5z" />
    <glyph glyph-name="uniFEB7" unicode="&#x634;" horiz-adv-x="1359" arabic-form="initial" 
d="M852 314h128v491q0 19 7.5 36t20 29.5t29.5 20t37 7.5h126q19 0 36 -7.5t30 -20t20.5 -29.5t7.5 -36v-516q0 -153 -69 -221t-197 -68h-1035v314h104v491q0 19 7.5 36t20 29.5t29.5 20t37 7.5h126q19 0 36 -7.5t30 -20t20.5 -29.5t7.5 -36v-491h128v491q0 19 7 36t20 29.5
t29.5 20t36.5 7.5h126q19 0 36 -7.5t30 -20t20.5 -29.5t7.5 -36v-491zM666 1173q0 -32 -12 -60.5t-33 -50t-49.5 -34t-61.5 -12.5q-32 0 -60.5 12.5t-49.5 34t-33.5 50t-12.5 60.5t12.5 60.5t33.5 50t49.5 34t60.5 12.5q33 0 61.5 -12.5t49.5 -34t33 -50t12 -60.5z
M1026 1173q0 -32 -12.5 -60.5t-33.5 -50t-49.5 -34t-60.5 -12.5q-33 0 -61.5 12.5t-49.5 34t-33.5 50t-12.5 60.5t12.5 60.5t33.5 50t49.5 34t61.5 12.5q32 0 60.5 -12.5t49.5 -34t33.5 -50t12.5 -60.5zM841 1492q0 -33 -12.5 -61.5t-33.5 -49.5t-49.5 -33.5t-60.5 -12.5
t-60.5 12.5t-50 33.5t-34 49.5t-12.5 61.5t12.5 61.5t34 49.5t50 33t60.5 12t60.5 -12t49.5 -33t33.5 -49.5t12.5 -61.5z" />
    <glyph glyph-name="uniFEB8" unicode="&#x634;" horiz-adv-x="1399" arabic-form="medial" 
d="M853 314h129v491q0 19 7.5 36t20 29.5t29.5 20t37 7.5h125q20 0 37 -7.5t30 -20t20 -29.5t7 -36v-491h108v-314h-1407v314h102v491q0 19 7.5 36t20.5 29.5t30 20t37 7.5h125q19 0 36.5 -7.5t30 -20t20 -29.5t7.5 -36v-491h128v491q0 19 7.5 36t20 29.5t29.5 20t37 7.5
h126q19 0 36 -7.5t29.5 -20t20 -29.5t7.5 -36v-491zM666 1173q0 -32 -12 -60.5t-33 -50t-49.5 -34t-61.5 -12.5q-32 0 -60.5 12.5t-49.5 34t-33.5 50t-12.5 60.5t12.5 60.5t33.5 50t49.5 34t60.5 12.5q33 0 61.5 -12.5t49.5 -34t33 -50t12 -60.5zM1026 1173
q0 -32 -12.5 -60.5t-33.5 -50t-49.5 -34t-60.5 -12.5q-33 0 -61.5 12.5t-49.5 34t-33.5 50t-12.5 60.5t12.5 60.5t33.5 50t49.5 34t61.5 12.5q32 0 60.5 -12.5t49.5 -34t33.5 -50t12.5 -60.5zM841 1492q0 -33 -12.5 -61.5t-33.5 -49.5t-49.5 -33.5t-60.5 -12.5t-60.5 12.5
t-50 33.5t-34 49.5t-12.5 61.5t12.5 61.5t34 49.5t50 33t60.5 12t60.5 -12t49.5 -33t33.5 -49.5t12.5 -61.5z" />
    <glyph glyph-name="afii57429" unicode="&#x635;" horiz-adv-x="2077" arabic-form="isolated" 
d="M1749 754q64 0 113 -16.5t83 -51.5t51.5 -90t17.5 -131v-176q0 -77 -17.5 -131.5t-51.5 -89.5t-83 -51.5t-113 -16.5h-625q-17 -97 -66 -180t-121 -143.5t-163 -94t-193 -31.5q-146 3 -245 54.5t-160 137.5t-87 199t-25 238v183q0 19 7.5 36.5t20.5 30t30 20t36 7.5h126
q19 0 36.5 -7.5t30 -20t20 -30t7.5 -36.5v-182q0 -51 6 -106.5t29.5 -102t69 -76.5t123.5 -30q77 0 121 28t65.5 70.5t25.5 92t2 93.5v315q0 153 68.5 221t196.5 68h664zM1132 314h569l-1 127h-568v-127z" />
    <glyph glyph-name="uniFEBA" unicode="&#x635;" horiz-adv-x="2106" arabic-form="final" 
d="M2011 314h98v-314h-989q-17 -97 -65.5 -180t-120.5 -143.5t-163 -94t-193 -31.5q-145 3 -244.5 54.5t-160.5 137.5t-87.5 199t-24.5 238v21q0 12 0.5 31.5t0.5 50.5v80q0 19 7.5 36.5t20 30t29.5 20t37 7.5h125q19 0 36.5 -7.5t30 -20t20 -30t7.5 -36.5v-182
q-1 -51 5.5 -106.5t30 -102t69 -76.5t123.5 -30q77 0 120.5 28t65 70.5t25.5 92t2 93.5v315q0 153 68.5 221t196.5 68h664q129 0 197.5 -68t68.5 -221v-151zM1129 314h568v127h-568v-127z" />
    <glyph glyph-name="uniFEBB" unicode="&#x635;" horiz-adv-x="1349" arabic-form="initial" 
d="M-7 314h96v493q0 19 7.5 36t20.5 30t30 20.5t36 7.5h125q19 0 36.5 -7.5t30 -20.5t20 -30t7.5 -36v-53h616q64 0 113 -16.5t83 -51.5t51.5 -90t17.5 -131v-176q0 -153 -68.5 -221t-196.5 -68h-1025v314zM402 314h568v127h-568v-127z" />
    <glyph glyph-name="uniFEBC" unicode="&#x635;" horiz-adv-x="1374" arabic-form="medial" 
d="M1283 314h96v-314h-1385v314h95v493q0 19 7.5 36t20.5 30t30 20.5t37 7.5h125q19 0 36 -7.5t30 -20.5t20.5 -30t7.5 -36v-53h616q64 0 113 -16.5t82.5 -51.5t51 -90t17.5 -131v-151zM403 314h567v127h-567v-127z" />
    <glyph glyph-name="afii57430" unicode="&#x636;" horiz-adv-x="2077" arabic-form="isolated" 
d="M1749 754q64 0 113 -16.5t83 -51.5t51.5 -90t17.5 -131v-176q0 -77 -17.5 -131.5t-51.5 -89.5t-83 -51.5t-113 -16.5h-625q-17 -97 -66 -180t-121 -143.5t-163 -94t-193 -31.5q-146 3 -245 54.5t-160 137.5t-87 199t-25 238v183q0 19 7.5 36.5t20.5 30t30 20t36 7.5h126
q19 0 36.5 -7.5t30 -20t20 -30t7.5 -36.5v-182q0 -51 6 -106.5t29.5 -102t69 -76.5t123.5 -30q77 0 121 28t65.5 70.5t25.5 92t2 93.5v315q0 153 68.5 221t196.5 68h664zM1573 1030q0 -33 -12.5 -61.5t-33.5 -50t-49.5 -34t-61.5 -12.5q-32 0 -60.5 12.5t-49.5 34t-33 50
t-12 61.5q0 32 12 60.5t33 49.5t49.5 33t60.5 12q33 0 61.5 -12t49.5 -33t33.5 -49.5t12.5 -60.5zM1132 314h569l-1 127h-568v-127z" />
    <glyph glyph-name="uniFEBE" unicode="&#x636;" horiz-adv-x="2106" arabic-form="final" 
d="M2011 314h98v-314h-989q-17 -97 -65.5 -180t-120.5 -143.5t-163 -94t-193 -31.5q-145 3 -244.5 54.5t-160.5 137.5t-87.5 199t-24.5 238v21q0 12 0.5 31.5t0.5 50.5v80q0 19 7.5 36.5t20 30t29.5 20t37 7.5h125q19 0 36.5 -7.5t30 -20t20 -30t7.5 -36.5v-182
q-1 -51 5.5 -106.5t30 -102t69 -76.5t123.5 -30q77 0 120.5 28t65 70.5t25.5 92t2 93.5v315q0 153 68.5 221t196.5 68h664q129 0 197.5 -68t68.5 -221v-151zM1553 1030q0 -33 -12.5 -61.5t-33.5 -50t-49.5 -34t-60.5 -12.5q-33 0 -61.5 12.5t-49.5 34t-33 50t-12 61.5
q0 32 12 60.5t33 49.5t49.5 33t61.5 12q32 0 60.5 -12t49.5 -33t33.5 -49.5t12.5 -60.5zM1129 314h568v127h-568v-127z" />
    <glyph glyph-name="uniFEBF" unicode="&#x636;" horiz-adv-x="1349" arabic-form="initial" 
d="M-7 314h96v493q0 19 7.5 36t20.5 30t30 20.5t36 7.5h125q19 0 36.5 -7.5t30 -20.5t20 -30t7.5 -36v-53h616q64 0 113 -16.5t83 -51.5t51.5 -90t17.5 -131v-176q0 -153 -68.5 -221t-196.5 -68h-1025v314zM852 1030q0 -33 -12.5 -61.5t-34 -50t-50 -34t-60.5 -12.5
t-60.5 12.5t-49.5 34t-33.5 50t-12.5 61.5q0 32 12.5 60.5t33.5 49.5t49.5 33t60.5 12t60.5 -12t50 -33t34 -49.5t12.5 -60.5zM402 314h568v127h-568v-127z" />
    <glyph glyph-name="uniFEC0" unicode="&#x636;" horiz-adv-x="1374" arabic-form="medial" 
d="M1283 314h96v-314h-1385v314h95v493q0 19 7.5 36t20.5 30t30 20.5t37 7.5h125q19 0 36 -7.5t30 -20.5t20.5 -30t7.5 -36v-53h616q64 0 113 -16.5t82.5 -51.5t51 -90t17.5 -131v-151zM852 1030q0 -33 -12.5 -61.5t-34 -50t-50 -34t-60.5 -12.5t-60.5 12.5t-49.5 34
t-33.5 50t-12.5 61.5q0 32 12.5 60.5t33.5 49.5t49.5 33t60.5 12t60.5 -12t50 -33t34 -49.5t12.5 -60.5zM403 314h567v127h-567v-127z" />
    <glyph glyph-name="afii57431" unicode="&#x637;" horiz-adv-x="1474" arabic-form="isolated" 
d="M225 1100q0 19 7.5 36.5t20.5 30t30 20t36 7.5h126q19 0 36.5 -7.5t30 -20t20 -30t7.5 -36.5v-346h615q129 0 197.5 -68t68.5 -221v-176q1 -153 -68 -221t-198 -68h-1013q-19 0 -36 7.5t-29.5 20t-20 29.5t-7.5 37v126q0 19 7.5 36.5t20 30t29.5 20t36 7.5h84v786z
M539 314h568v127h-568v-127z" />
    <glyph glyph-name="uniFEC2" unicode="&#x637;" horiz-adv-x="1509" arabic-form="final" 
d="M1421 314h94v-314h-1373q-19 0 -36 7.5t-29.5 20t-20 29.5t-7.5 37v126q0 19 7.5 36.5t20 30t29.5 20t36 7.5h85v786q0 19 7.5 36.5t20 30t29.5 20t36 7.5h125q40 0 67 -27.5t27 -66.5v-346h616q128 0 196.5 -68t69.5 -221v-151zM539 314h569v127h-569v-127z" />
    <glyph glyph-name="uniFEC3" unicode="&#x637;" horiz-adv-x="1340" arabic-form="initial" 
d="M-7 314h95v786q0 19 7.5 36.5t20 30t30 20t37.5 7.5h124q19 0 36.5 -7.5t30.5 -20t20.5 -30t7.5 -36.5v-346h614q129 0 197.5 -68t68.5 -221v-176q0 -77 -17 -131.5t-51 -89.5t-83 -51.5t-113 -16.5h-1025v314zM401 314h568v127h-568v-127z" />
    <glyph glyph-name="uniFEC4" unicode="&#x637;" horiz-adv-x="1379" arabic-form="medial" 
d="M-3 314h98v786q0 19 7.5 36.5t20 30t30 20t37.5 7.5h125q19 0 36 -7.5t30 -20t20.5 -30t7.5 -36.5v-346h614q129 0 197 -68t68 -221v-151h95v-314h-1386v314zM409 314h567v127h-567v-127z" />
    <glyph glyph-name="afii57432" unicode="&#x638;" horiz-adv-x="1474" arabic-form="isolated" 
d="M225 1100q0 19 7.5 36.5t20.5 30t30 20t36 7.5h126q19 0 36.5 -7.5t30 -20t20 -30t7.5 -36.5v-346h615q129 0 197.5 -68t68.5 -221v-176q1 -153 -68 -221t-198 -68h-1013q-19 0 -36 7.5t-29.5 20t-20 29.5t-7.5 37v126q0 19 7.5 36.5t20 30t29.5 20t36 7.5h84v786z
M967 1030q0 -33 -12.5 -61.5t-34 -50t-50 -34t-60.5 -12.5t-60.5 12.5t-50 34t-34 50t-12.5 61.5q0 32 12.5 60.5t34 49.5t50 33t60.5 12t60.5 -12t50 -33t34 -49.5t12.5 -60.5zM539 314h568v127h-568v-127z" />
    <glyph glyph-name="uniFEC6" unicode="&#x638;" horiz-adv-x="1509" arabic-form="final" 
d="M1421 314h94v-314h-1373q-19 0 -36 7.5t-29.5 20t-20 29.5t-7.5 37v126q0 19 7.5 36.5t20 30t29.5 20t36 7.5h85v786q0 19 7.5 36.5t20 30t29.5 20t36 7.5h125q40 0 67 -27.5t27 -66.5v-346h616q128 0 196.5 -68t69.5 -221v-151zM967 1030q0 -33 -12.5 -61.5t-33.5 -50
t-49.5 -34t-60.5 -12.5t-60.5 12.5t-50 34t-34 50t-12.5 61.5q0 32 12.5 60.5t34 49.5t50 33t60.5 12t60.5 -12t49.5 -33t33.5 -49.5t12.5 -60.5zM539 314h569v127h-569v-127z" />
    <glyph glyph-name="uniFEC7" unicode="&#x638;" horiz-adv-x="1340" arabic-form="initial" 
d="M-7 314h95v786q0 19 7.5 36.5t20 30t30 20t37.5 7.5h124q19 0 36.5 -7.5t30.5 -20t20.5 -30t7.5 -36.5v-346h614q129 0 197.5 -68t68.5 -221v-176q0 -77 -17 -131.5t-51 -89.5t-83 -51.5t-113 -16.5h-1025v314zM852 1030q0 -33 -12.5 -61.5t-34 -50t-50 -34t-60.5 -12.5
t-60.5 12.5t-49.5 34t-33.5 50t-12.5 61.5q0 32 12.5 60.5t33.5 49.5t49.5 33t60.5 12t60.5 -12t50 -33t34 -49.5t12.5 -60.5zM401 314h568v127h-568v-127z" />
    <glyph glyph-name="uniFEC8" unicode="&#x638;" horiz-adv-x="1379" arabic-form="medial" 
d="M-3 314h98v786q0 19 7.5 36.5t20 30t30 20t37.5 7.5h125q19 0 36 -7.5t30 -20t20.5 -30t7.5 -36.5v-346h614q129 0 197 -68t68 -221v-151h95v-314h-1386v314zM852 1030q0 -33 -12.5 -61.5t-34 -50t-50 -34t-60.5 -12.5t-60.5 12.5t-49.5 34t-33.5 50t-12.5 61.5
q0 32 12.5 60.5t33.5 49.5t49.5 33t60.5 12t60.5 -12t50 -33t34 -49.5t12.5 -60.5zM409 314h567v127h-567v-127z" />
    <glyph glyph-name="afii57433" unicode="&#x639;" horiz-adv-x="976" arabic-form="isolated" 
d="M157 612q0 153 68 221t196 68h404q19 0 36 -7.5t30 -20t20.5 -30t7.5 -36.5v-125q0 -20 -7.5 -36.5t-20.5 -29.5t-30 -20t-36 -7h-355v-183q19 2 39.5 3t40.5 1h274q19 0 36 -7.5t30 -20t20.5 -30t7.5 -36.5v-125q0 -20 -7.5 -37t-20.5 -29.5t-30 -20t-36 -7.5l-245 -1
q-25 0 -50 0.5t-49 -4.5q-23 -5 -44 -14t-38 -23.5t-29 -35.5t-17 -51v-50q7 -40 25.5 -65t44.5 -39t58 -20t65.5 -7t67.5 0.5t64 1.5q19 0 36 -7.5t30 -20t20.5 -30t7.5 -36.5v-125q0 -39 -28 -64t-66 -30q-132 -14 -241.5 9t-191 79t-132 145t-63.5 209v50q17 158 108 269
v375z" />
    <glyph glyph-name="uniFECA" unicode="&#x639;" horiz-adv-x="1125" arabic-form="final" 
d="M271 335l-53 127l-28 68t-24 68.5t-14 70t2 73.5q8 50 34.5 81t64 48.5t82 23.5t88.5 6h339q44 0 86.5 -6.5t78 -24t63 -48.5t41.5 -80q22 -73 15 -140t-33 -122.5t-66 -98t-85 -67.5h267v-314h-585q-31 -3 -53.5 1t-39 12.5t-27 19.5t-16.5 22q-52 -38 -52 -137
q7 -40 25.5 -65t44.5 -39t57.5 -20t65.5 -7t67.5 0.5t63.5 1.5q39 0 66 -27.5t27 -66.5v-125q0 -39 -27 -64t-66 -30q-132 -14 -241.5 9t-191 79t-132 145t-63.5 209v50q14 121 70 215t149 152zM549 410q34 12 64 28.5t53.5 38.5t39.5 50t21 62h-256z" />
    <glyph glyph-name="uniFECB" unicode="&#x639;" horiz-adv-x="927" arabic-form="initial" 
d="M-4 314h101v298q0 153 68.5 221t196.5 68h325q39 0 66.5 -27.5t27.5 -66.5v-125q0 -39 -27.5 -66t-66.5 -27h-277v-275h356q19 0 36.5 -7.5t30 -20t20 -30t7.5 -36.5v-126q0 -20 -7.5 -37t-20 -29.5t-30 -20t-36.5 -7.5h-770v314z" />
    <glyph glyph-name="uniFECC" unicode="&#x639;" horiz-adv-x="1066" arabic-form="medial" 
d="M-3 314h223q-36 90 -63 154t-43 112.5t-21 86t2 75.5q8 50 34.5 81t63.5 48.5t81.5 23.5t88.5 6h341q44 0 88 -6t81.5 -23.5t64 -48.5t34.5 -81q6 -38 2 -73.5t-14 -70t-24.5 -68.5t-28.5 -68l-60 -148h224v-314h-1074v314zM412 589l122 -275l122 275h-244z" />
    <glyph glyph-name="afii57434" unicode="&#x63a;" horiz-adv-x="976" arabic-form="isolated" 
d="M157 612q0 153 68 221t196 68h404q19 0 36 -7.5t30 -20t20.5 -30t7.5 -36.5v-125q0 -20 -7.5 -36.5t-20.5 -29.5t-30 -20t-36 -7h-355v-183q19 2 39.5 3t40.5 1h274q19 0 36 -7.5t30 -20t20.5 -30t7.5 -36.5v-125q0 -20 -7.5 -37t-20.5 -29.5t-30 -20t-36 -7.5l-245 -1
q-25 0 -50 0.5t-49 -4.5q-23 -5 -44 -14t-38 -23.5t-29 -35.5t-17 -51v-50q7 -40 25.5 -65t44.5 -39t58 -20t65.5 -7t67.5 0.5t64 1.5q19 0 36 -7.5t30 -20t20.5 -30t7.5 -36.5v-125q0 -39 -28 -64t-66 -30q-132 -14 -241.5 9t-191 79t-132 145t-63.5 209v50q17 158 108 269
v375zM693 1188q0 -33 -12.5 -61.5t-34 -50t-50 -34t-60.5 -12.5t-60.5 12.5t-50 34t-34 50t-12.5 61.5q0 32 12.5 60.5t34 49.5t50 33.5t60.5 12.5t60.5 -12.5t50 -33.5t34 -49.5t12.5 -60.5z" />
    <glyph glyph-name="uniFECE" unicode="&#x63a;" horiz-adv-x="1125" arabic-form="final" 
d="M271 335l-53 127l-28 68t-24 68.5t-14 70t2 73.5q8 50 34.5 81t64 48.5t82 23.5t88.5 6h339q44 0 86.5 -6.5t78 -24t63 -48.5t41.5 -80q22 -73 15 -140t-33 -122.5t-66 -98t-85 -67.5h267v-314h-585q-31 -3 -53.5 1t-39 12.5t-27 19.5t-16.5 22q-52 -38 -52 -137
q7 -40 25.5 -65t44.5 -39t57.5 -20t65.5 -7t67.5 0.5t63.5 1.5q39 0 66 -27.5t27 -66.5v-125q0 -39 -27 -64t-66 -30q-132 -14 -241.5 9t-191 79t-132 145t-63.5 209v50q14 121 70 215t149 152zM747 1188q0 -33 -12.5 -61.5t-33.5 -50t-49.5 -34t-60.5 -12.5t-60.5 12.5
t-50 34t-34 50t-12.5 61.5q0 32 12.5 60.5t34 49.5t50 33.5t60.5 12.5t60.5 -12.5t49.5 -33.5t33.5 -49.5t12.5 -60.5zM549 410q34 12 64 28.5t53.5 38.5t39.5 50t21 62h-256z" />
    <glyph glyph-name="uniFECF" unicode="&#x63a;" horiz-adv-x="927" arabic-form="initial" 
d="M-4 314h101v298q0 153 68.5 221t196.5 68h325q39 0 66.5 -27.5t27.5 -66.5v-125q0 -39 -27.5 -66t-66.5 -27h-277v-275h356q19 0 36.5 -7.5t30 -20t20 -30t7.5 -36.5v-126q0 -20 -7.5 -37t-20 -29.5t-30 -20t-36.5 -7.5h-770v314zM628 1188q0 -33 -12.5 -61.5t-33.5 -50
t-49.5 -34t-60.5 -12.5q-33 0 -61.5 12.5t-49.5 34t-33.5 50t-12.5 61.5q0 32 12.5 60.5t33.5 49.5t49.5 33.5t61.5 12.5q32 0 60.5 -12.5t49.5 -33.5t33.5 -49.5t12.5 -60.5z" />
    <glyph glyph-name="uniFED0" unicode="&#x63a;" horiz-adv-x="1066" arabic-form="medial" 
d="M-3 314h223q-36 90 -63 154t-43 112.5t-21 86t2 75.5q8 50 34.5 81t63.5 48.5t81.5 23.5t88.5 6h341q44 0 88 -6t81.5 -23.5t64 -48.5t34.5 -81q6 -38 2 -73.5t-14 -70t-24.5 -68.5t-28.5 -68l-60 -148h224v-314h-1074v314zM693 1188q0 -33 -12.5 -61.5t-34 -50t-50 -34
t-60.5 -12.5t-60.5 12.5t-50 34t-34 50t-12.5 61.5q0 32 12.5 60.5t34 49.5t50 33.5t60.5 12.5t60.5 -12.5t50 -33.5t34 -49.5t12.5 -60.5zM412 589l122 -275l122 275h-244z" />
    <glyph glyph-name="afii57441" unicode="&#x641;" horiz-adv-x="1304" arabic-form="isolated" 
d="M371 314h121v298q0 153 68.5 221t197.5 68h222q128 0 196.5 -68t68.5 -221v-323q1 -153 -68 -221t-197 -68h-657q-129 0 -197.5 68t-68.5 221v74q0 39 27.5 66t66.5 27h125q19 0 36.5 -7t30.5 -20t20.5 -30t7.5 -36v-49zM1015 1188q0 -33 -12 -61.5t-33 -50t-49.5 -34
t-60.5 -12.5q-33 0 -61.5 12.5t-49.5 34t-33.5 50t-12.5 61.5q0 32 12.5 60.5t33.5 49.5t49.5 33.5t61.5 12.5q32 0 60.5 -12.5t49.5 -33.5t33 -49.5t12 -60.5zM805 314h127v275h-127v-275z" />
    <glyph glyph-name="uniFED2" unicode="&#x641;" horiz-adv-x="1487" arabic-form="final" 
d="M386 314h256v298q0 153 68 221t196 68h223q64 0 113 -16.5t83 -51.5t51.5 -90t17.5 -131v-298h99v-314h-1155q-129 0 -197.5 68t-68.5 221v74q0 39 27.5 66t66.5 27h125q19 0 36.5 -7t30.5 -20t20.5 -30t7.5 -36v-49zM1179 1188q0 -33 -12.5 -61.5t-34 -50t-50 -34
t-60.5 -12.5t-60.5 12.5t-50 34t-34 50t-12.5 61.5q0 32 12.5 60.5t34 49.5t50 33.5t60.5 12.5t60.5 -12.5t50 -33.5t34 -49.5t12.5 -60.5zM954 314h128v275h-128v-275z" />
    <glyph glyph-name="uniFED3" unicode="&#x641;" horiz-adv-x="911" arabic-form="initial" 
d="M-3 314h96v298q0 153 68.5 221t196.5 68h223q128 0 197 -68t69 -221v-323q0 -153 -68.5 -221t-196.5 -68h-585v314zM628 1188q0 -33 -12.5 -61.5t-33.5 -50t-49.5 -34t-60.5 -12.5q-33 0 -61.5 12.5t-49.5 34t-33.5 50t-12.5 61.5q0 32 12.5 60.5t33.5 49.5t49.5 33.5
t61.5 12.5q32 0 60.5 -12.5t49.5 -33.5t33.5 -49.5t12.5 -60.5zM407 314h127v275h-127v-275z" />
    <glyph glyph-name="uniFED4" unicode="&#x641;" horiz-adv-x="940" arabic-form="medial" 
d="M847 314h98v-314h-948v314h96v298q0 153 68.5 221t196.5 68h223q128 0 197 -68t69 -221v-298zM628 1188q0 -33 -12.5 -61.5t-33.5 -50t-49.5 -34t-60.5 -12.5q-33 0 -61.5 12.5t-49.5 34t-33.5 50t-12.5 61.5q0 32 12.5 60.5t33.5 49.5t49.5 33.5t61.5 12.5
q32 0 60.5 -12.5t49.5 -33.5t33.5 -49.5t12.5 -60.5zM406 314h128l-1 275h-127v-275z" />
    <glyph glyph-name="afii57442" unicode="&#x642;" horiz-adv-x="1348" arabic-form="isolated" 
d="M884 1188q0 -33 -12.5 -61.5t-34 -50t-50 -34t-60.5 -12.5t-60.5 12.5t-49.5 34t-33.5 50t-12.5 61.5q0 32 12.5 60.5t33.5 49.5t49.5 33.5t60.5 12.5t60.5 -12.5t50 -33.5t34 -49.5t12.5 -60.5zM1242 1188q0 -33 -12.5 -61.5t-33.5 -50t-49.5 -34t-60.5 -12.5
t-60.5 12.5t-50 34t-34 50t-12.5 61.5q0 32 12.5 60.5t34 49.5t50 33.5t60.5 12.5t60.5 -12.5t49.5 -33.5t33.5 -49.5t12.5 -60.5zM375 181q-1 -34 2 -71.5t13.5 -74t31 -69.5t56 -57.5t88.5 -38.5t127 -13q44 -1 91 1t87.5 15.5t70 43t38.5 83.5h-177q-128 0 -196.5 68
t-68.5 221v323q0 153 68.5 221t196.5 68h223q64 0 113.5 -16.5t83.5 -51.5t51 -90t16 -131l-1 -531q0 -129 -39.5 -228.5t-112 -167t-174.5 -101t-228 -31.5l1 -2h-159q-145 3 -244 54.5t-160 137.5t-87.5 199t-24.5 238v183q0 19 7.5 36.5t20.5 30t30 20t37 7.5h125
q38 0 65 -27.5t29 -66.5v-182zM851 314h127v275h-127v-275z" />
    <glyph glyph-name="uniFED6" unicode="&#x642;" horiz-adv-x="1388" arabic-form="final" 
d="M375 181q-1 -34 2 -71.5t13.5 -74t31 -69.5t56 -57.5t88.5 -38.5t127 -13q44 -1 91 1t87.5 15.5t70 43t38.5 83.5h-177q-128 0 -196.5 68t-68.5 221v323q0 153 68.5 221t196.5 68h223q64 0 113.5 -16.5t83.5 -51.5t51 -90t16 -131l-1 -298h105v-314h-109
q-12 -110 -56 -194t-115.5 -141t-167.5 -85.5t-211 -26.5l1 -2h-159q-145 3 -244 54.5t-160 137.5t-87.5 199t-24.5 238v183q0 19 7.5 36.5t20.5 30t30 20t37 7.5h125q38 0 65 -27.5t29 -66.5v-182zM1242 1188q0 -33 -12.5 -61.5t-33.5 -50t-49.5 -34t-60.5 -12.5
t-60.5 12.5t-50 34t-34 50t-12.5 61.5q0 32 12.5 60.5t34 49.5t50 33.5t60.5 12.5t60.5 -12.5t49.5 -33.5t33.5 -49.5t12.5 -60.5zM884 1188q0 -33 -12.5 -61.5t-34 -50t-50 -34t-60.5 -12.5t-60.5 12.5t-49.5 34t-33.5 50t-12.5 61.5q0 32 12.5 60.5t33.5 49.5t49.5 33.5
t60.5 12.5t60.5 -12.5t50 -33.5t34 -49.5t12.5 -60.5zM851 314h127v275h-127v-275z" />
    <glyph glyph-name="uniFED7" unicode="&#x642;" horiz-adv-x="911" arabic-form="initial" 
d="M-3 314h96v298q0 153 68.5 221t196.5 68h223q128 0 197 -68t69 -221v-323q0 -153 -68.5 -221t-196.5 -68h-585v314zM804 1188q0 -33 -12.5 -61.5t-33.5 -50t-49.5 -34t-61.5 -12.5q-32 0 -60.5 12.5t-49.5 34t-33 50t-12 61.5q0 32 12 60.5t33 49.5t49.5 33.5t60.5 12.5
q33 0 61.5 -12.5t49.5 -33.5t33.5 -49.5t12.5 -60.5zM445 1188q0 -33 -12 -61.5t-33 -50t-49.5 -34t-61.5 -12.5q-32 0 -60.5 12.5t-49.5 34t-33.5 50t-12.5 61.5q0 32 12.5 60.5t33.5 49.5t49.5 33.5t60.5 12.5q33 0 61.5 -12.5t49.5 -33.5t33 -49.5t12 -60.5zM407 314h127
v275h-127v-275z" />
    <glyph glyph-name="uniFED8" unicode="&#x642;" horiz-adv-x="940" arabic-form="medial" 
d="M847 314h98v-314h-948v314h96v298q0 153 68.5 221t196.5 68h223q128 0 197 -68t69 -221v-298zM801 1188q0 -33 -12.5 -61.5t-33.5 -50t-49.5 -34t-60.5 -12.5t-60.5 12.5t-50 34t-34 50t-12.5 61.5q0 32 12.5 60.5t34 49.5t50 33.5t60.5 12.5t60.5 -12.5t49.5 -33.5
t33.5 -49.5t12.5 -60.5zM443 1188q0 -33 -12.5 -61.5t-34 -50t-50 -34t-60.5 -12.5t-60.5 12.5t-49.5 34t-33.5 50t-12.5 61.5q0 32 12.5 60.5t33.5 49.5t49.5 33.5t60.5 12.5t60.5 -12.5t50 -33.5t34 -49.5t12.5 -60.5zM406 314h128l-1 275h-127v-275z" />
    <glyph glyph-name="afii57443" unicode="&#x643;" horiz-adv-x="1384" arabic-form="isolated" 
d="M1011 314v127h-783q-19 0 -36 7.5t-29.5 20.5t-20 30t-7.5 36l-1 214q13 119 63.5 208t132 145t191 78.5t241.5 9.5q38 -5 66 -30t28 -64v-126q0 -19 -7.5 -36t-20.5 -30t-30 -20.5t-36 -7.5q-29 0 -62 1.5t-66.5 0.5t-65 -6t-57.5 -18.5t-45 -37.5t-27 -62h619
q128 0 197 -68t69 -221l-1 -371q0 -20 -7.5 -37t-20.5 -29.5t-30 -20t-36 -7.5h-1083q-19 0 -36 7.5t-29.5 20t-20 29.5t-7.5 37v126q0 19 7.5 36.5t20 30t29.5 20t36 7.5h865z" />
    <glyph glyph-name="uniFB8F" unicode="&#x6a9;" horiz-adv-x="1419" arabic-form="final" 
d="M1425 0h-1277q-19 0 -36 7.5t-30 20t-20.5 29.5t-7.5 37v126q0 19 7.5 36.5t20.5 30t30 20t36 7.5h865v127h-783q-20 0 -37 7.5t-29.5 20.5t-20 30t-7.5 36v214q13 119 63.5 208t132 145t191.5 78.5t242 9.5q38 -5 65.5 -30t27.5 -64v-126q0 -19 -7.5 -36t-20.5 -30
t-29.5 -20.5t-35.5 -7.5q-45 0 -96.5 2.5t-98.5 -6.5t-82 -35t-47 -83h620q64 0 113 -16.5t83 -51.5t51.5 -90t17.5 -131v-151h99v-314z" />
    <glyph glyph-name="uniFB90" unicode="&#x6a9;" horiz-adv-x="1325" arabic-form="initial" 
d="M955 314l-1 127h-783q-19 0 -36 7.5t-30 20.5t-20.5 30t-7.5 36v214q13 119 64 208t132.5 145t191 78.5t241.5 9.5q39 -5 66.5 -30t27.5 -64v-126q0 -19 -7.5 -36t-20 -30t-30 -20.5t-36.5 -7.5q-30 0 -63 1.5t-66.5 0.5t-65 -6t-57.5 -18.5t-44.5 -37.5t-26.5 -62h619
q128 0 196.5 -68t68.5 -221l-1 -371q0 -20 -7.5 -37t-20 -29.5t-30 -20t-36.5 -7.5h-1179v314h962z" />
    <glyph glyph-name="uniFB91" unicode="&#x6a9;" horiz-adv-x="1365" arabic-form="medial" 
d="M1370 0h-1377v314h965v127h-782q-20 0 -37 7.5t-29.5 20.5t-20 30t-7.5 36l-1 214q13 119 63.5 208t132 145t191 78.5t241.5 9.5q38 -5 66 -30t28 -64v-126q0 -19 -7.5 -36t-20 -30t-30 -20.5t-36.5 -7.5q-29 0 -62 1.5t-66.5 0.5t-65 -6t-57.5 -18.5t-44.5 -37.5
t-26.5 -62h618q129 0 197.5 -68t68.5 -221v-151h99v-314z" />
    <glyph glyph-name="afii57509" unicode="&#x6af;" horiz-adv-x="1384" arabic-form="isolated" 
d="M1011 314v127h-783q-19 0 -36 7.5t-29.5 20.5t-20 30t-7.5 36l-1 214q13 119 63.5 208t132 145t191 78.5t241.5 9.5q38 -5 66 -30t28 -64v-126q0 -19 -7.5 -36t-20.5 -30t-30 -20.5t-36 -7.5q-29 0 -62 1.5t-66.5 0.5t-65 -6t-57.5 -18.5t-45 -37.5t-27 -62h619
q128 0 197 -68t69 -221l-1 -371q0 -20 -7.5 -37t-20.5 -29.5t-30 -20t-36 -7.5h-1083q-19 0 -36 7.5t-29.5 20t-20 29.5t-7.5 37v126q0 19 7.5 36.5t20 30t29.5 20t36 7.5h865zM297 1121q17 96 52 126t100 77t152.5 64.5t192.5 6.5q24 -16 27 -48v-20q-2 -16 -6 -29.5
t-14.5 -23.5t-20.5 -16.5t-32 -5.5h-78.5t-79.5 -2.5t-93 -14.5t-200 -114z" />
    <glyph glyph-name="uniFB93" unicode="&#x6af;" horiz-adv-x="1419" arabic-form="final" 
d="M1425 0h-1277q-19 0 -36 7.5t-30 20t-20.5 29.5t-7.5 37v126q0 19 7.5 36.5t20.5 30t30 20t36 7.5h865v127h-783q-20 0 -37 7.5t-29.5 20.5t-20 30t-7.5 36v214q13 119 63.5 208t132 145t191.5 78.5t242 9.5q38 -5 65.5 -30t27.5 -64v-126q0 -19 -7.5 -36t-20.5 -30
t-29.5 -20.5t-35.5 -7.5q-45 0 -96.5 2.5t-98.5 -6.5t-82 -35t-47 -83h620q64 0 113 -16.5t83 -51.5t51.5 -90t17.5 -131v-151h99v-314zM297 1121q17 96 52 126t100 77t152.5 64.5t192.5 6.5q24 -16 27 -48v-20q-2 -16 -6 -29.5t-14.5 -23.5t-20.5 -16.5t-32 -5.5h-78.5
t-79.5 -2.5t-93 -14.5t-200 -114z" />
    <glyph glyph-name="uniFB94" unicode="&#x6af;" horiz-adv-x="1325" arabic-form="initial" 
d="M955 314l-1 127h-783q-19 0 -36 7.5t-30 20.5t-20.5 30t-7.5 36v214q13 119 64 208t132.5 145t191 78.5t241.5 9.5q39 -5 66.5 -30t27.5 -64v-126q0 -19 -7.5 -36t-20 -30t-30 -20.5t-36.5 -7.5q-30 0 -63 1.5t-66.5 0.5t-65 -6t-57.5 -18.5t-44.5 -37.5t-26.5 -62h619
q128 0 196.5 -68t68.5 -221l-1 -371q0 -20 -7.5 -37t-20 -29.5t-30 -20t-36.5 -7.5h-1179v314h962zM237 1115q17 96 52 126t100 77t152.5 64.5t192.5 6.5q24 -16 27 -48v-20q-2 -16 -6 -29.5t-14.5 -23.5t-20.5 -16.5t-32 -5.5h-78.5t-79.5 -2.5t-93 -14.5t-200 -114z" />
    <glyph glyph-name="uniFB95" unicode="&#x6af;" horiz-adv-x="1365" arabic-form="medial" 
d="M1370 0h-1377v314h965v127h-782q-20 0 -37 7.5t-29.5 20.5t-20 30t-7.5 36l-1 214q13 119 63.5 208t132 145t191 78.5t241.5 9.5q38 -5 66 -30t28 -64v-126q0 -19 -7.5 -36t-20 -30t-30 -20.5t-36.5 -7.5q-29 0 -62 1.5t-66.5 0.5t-65 -6t-57.5 -18.5t-44.5 -37.5
t-26.5 -62h618q129 0 197.5 -68t68.5 -221v-151h99v-314zM237 1115q17 96 52 126t100 77t152.5 64.5t192.5 6.5q24 -16 27 -48v-20q-2 -16 -6 -29.5t-14.5 -23.5t-20.5 -16.5t-32 -5.5h-78.5t-79.5 -2.5t-93 -14.5t-200 -114z" />
    <glyph glyph-name="afii57444" unicode="&#x644;" horiz-adv-x="1190" arabic-form="isolated" 
d="M1121 87q-2 -112 -46 -210.5t-118.5 -171.5t-174.5 -114.5t-214 -39.5q-145 3 -244 54.5t-160 137.5t-87 199t-25 238v183q0 19 7.5 36.5t20.5 30t30 20t37 7.5h124q40 0 67 -27.5t28 -66.5v-182q0 -34 2.5 -70.5t10.5 -71.5t23 -66.5t40.5 -55.5t62.5 -37.5t88 -13.5
q52 0 88.5 13t60.5 35t38 50.5t20.5 60t7.5 64t0 61.5v950q0 19 7.5 36.5t20 30t29.5 20t37 7.5h125q19 0 36.5 -7.5t30 -20t20 -30t7.5 -36.5v-1013z" />
    <glyph glyph-name="uniFEDE" unicode="&#x644;" horiz-adv-x="1215" arabic-form="final" 
d="M1108 0q-17 -97 -65.5 -180t-120.5 -143.5t-163 -94t-194 -31.5q-145 3 -244.5 54.5t-160 137.5t-87 199t-24.5 238v21q0 12 0.5 31.5t0.5 50.5v80q0 19 7 36.5t19.5 30t29.5 20t36 7.5h126q19 0 36 -7.5t30 -20t20.5 -30t7.5 -36.5v-182q0 -51 6 -106.5t29.5 -102
t69 -76.5t123.5 -30q77 0 121 28t65.5 70.5t25.5 92t2 93.5v950q0 19 7.5 36.5t20.5 30t30 20t36 7.5h125q19 0 36.5 -7.5t30 -20t20 -30t7.5 -36.5l-1 -786h104v-314h-112z" />
    <glyph glyph-name="uniFEDF" unicode="&#x644;" horiz-adv-x="478" arabic-form="initial" 
d="M92 314v786q0 19 7.5 36.5t20 30t29.5 20t37 7.5h125q19 0 36.5 -7.5t30 -20t20 -30t7.5 -36.5v-811q0 -153 -69 -221t-197 -68h-142v314h95z" />
    <glyph glyph-name="uniFEE0" unicode="&#x644;" horiz-adv-x="493" arabic-form="medial" 
d="M92 314v786q0 19 7.5 36.5t20 30t29.5 20t37 7.5h125q19 0 36.5 -7.5t30 -20t20 -30t7.5 -36.5v-786h94v-314h-502v314h95z" />
    <glyph glyph-name="afii57445" unicode="&#x645;" horiz-adv-x="1181" arabic-form="isolated" 
d="M679 314h128v275h-128v-275zM57 -191q-7 64 5 140t48 147t98.5 129.5t157.5 88.5v298q0 153 69 221t197 68h222q128 0 196.5 -68t69.5 -221v-323q0 -153 -69 -221t-197 -68h-242q-260 18 -242 -241v-128q0 -20 -7.5 -37t-20 -29.5t-30 -20t-36.5 -7.5h-125
q-40 0 -67 27.5t-27 66.5v178z" />
    <glyph glyph-name="uniFEE2" unicode="&#x645;" horiz-adv-x="1215" arabic-form="final" 
d="M676 314h127v275h-127v-275zM1116 314h105v-314h-612q-258 18 -243 -241v-128q0 -39 -27 -66.5t-67 -27.5h-125q-19 0 -36 7.5t-30 20t-20.5 29.5t-7.5 37v178q-7 64 5.5 140t48.5 147t98.5 129.5t157.5 88.5v298q0 153 68.5 221t196.5 68h223q128 0 196.5 -68t68.5 -221
v-298z" />
    <glyph glyph-name="uniFEE3" unicode="&#x645;" horiz-adv-x="911" arabic-form="initial" 
d="M407 314h127v275h-127v-275zM-3 314h96v298q0 153 68.5 221t196.5 68h223q128 0 197 -68t69 -221v-323q0 -153 -68.5 -221t-196.5 -68h-585v314z" />
    <glyph glyph-name="uniFEE4" unicode="&#x645;" horiz-adv-x="940" arabic-form="medial" 
d="M406 314h128l-1 275h-127v-275zM847 314h98v-314h-948v314h96v298q0 153 68.5 221t196.5 68h223q128 0 197 -68t69 -221v-298z" />
    <glyph glyph-name="afii57446" unicode="&#x646;" horiz-adv-x="1190" arabic-form="isolated" 
d="M1131 87q-2 -112 -45.5 -210.5t-118 -171.5t-174.5 -114.5t-214 -39.5q-145 3 -244 54.5t-159.5 137.5t-86.5 199t-25 238v183q0 19 7.5 36.5t20 30t29.5 20t37 7.5h126q19 0 36 -7.5t29.5 -20t20.5 -30t8 -36.5v-182q-1 -34 1.5 -70.5t10.5 -71.5t23 -66.5t40.5 -55.5
t63 -37.5t89.5 -13.5q77 0 120.5 28t65 70.5t26 92t2.5 93.5v655q0 19 7.5 36t20 29.5t29.5 20t36 7.5h126q19 0 36.5 -7.5t30 -20t20 -29.5t6.5 -36zM717 1049q0 -32 -12.5 -61t-34 -50.5t-50 -34t-60.5 -12.5t-60.5 12.5t-49.5 34t-33.5 50.5t-12.5 61q0 33 12.5 61.5
t33.5 49.5t49.5 33t60.5 12t60.5 -12t50 -33t34 -49.5t12.5 -61.5z" />
    <glyph glyph-name="uniFEE6" unicode="&#x646;" horiz-adv-x="1215" arabic-form="final" 
d="M1116 0q-17 -97 -65.5 -180t-120.5 -143.5t-163 -94t-194 -31.5q-145 3 -244 54.5t-160 137.5t-87 199t-25 238v183q0 19 7.5 36.5t20 30t29.5 20t37 7.5h126q19 0 36 -7.5t30 -20t20.5 -30t7.5 -36.5v-182q0 -51 6 -106.5t29.5 -102t69 -76.5t123.5 -30q51 0 87.5 13
t60.5 35t38 50.5t20.5 60t7.5 64t0 61.5v655q0 19 7.5 36t20 29.5t29.5 20t37 7.5h125q19 0 36.5 -7.5t30.5 -20t20 -29.5t7 -36v-491h95v-314h-105zM717 1049q0 -32 -12.5 -61t-34 -50.5t-50 -34t-60.5 -12.5t-60.5 12.5t-49.5 34t-33.5 50.5t-12.5 61q0 33 12.5 61.5
t33.5 49.5t49.5 33t60.5 12t60.5 -12t50 -33t34 -49.5t12.5 -61.5z" />
    <glyph glyph-name="uniFEE7" unicode="&#x646;" horiz-adv-x="473" arabic-form="initial" 
d="M-3 314h105v491q0 19 7.5 36t20 29.5t29.5 20t37 7.5h124q19 0 36 -7.5t30 -20t20.5 -29.5t7.5 -36v-516q0 -153 -68.5 -221t-196.5 -68h-152v314zM413 1173q0 -32 -12 -60.5t-33 -50t-49.5 -34t-61.5 -12.5q-32 0 -60.5 12.5t-49.5 34t-33.5 50t-12.5 60.5t12.5 60.5
t33.5 50t49.5 34t60.5 12.5q33 0 61.5 -12.5t49.5 -34t33 -50t12 -60.5z" />
    <glyph glyph-name="uniFEE8" unicode="&#x646;" horiz-adv-x="518" arabic-form="medial" 
d="M418 314h102v-314h-523v314h107v491q0 19 7.5 36t20.5 29.5t30 20t37 7.5h125q19 0 36.5 -7.5t30 -20t20 -29.5t7.5 -36v-491zM413 1173q0 -32 -12 -60.5t-33 -50t-49.5 -34t-61.5 -12.5q-32 0 -60.5 12.5t-49.5 34t-33.5 50t-12.5 60.5t12.5 60.5t33.5 50t49.5 34
t60.5 12.5q33 0 61.5 -12.5t49.5 -34t33 -50t12 -60.5z" />
    <glyph glyph-name="afii57448" unicode="&#x648;" horiz-adv-x="882" arabic-form="isolated" 
d="M183 -442q-38 4 -66 29.5t-28 64.5v126q0 19 7.5 36.5t20.5 30t30 20t36 7.5q45 0 97.5 -2t99.5 7t82 36.5t45 86.5h-177q-129 0 -197.5 68t-68.5 221v323q0 153 68.5 221t197.5 68h222q129 0 198 -68t68 -221l-2 -531q0 -140 -45.5 -244.5t-128.5 -171.5t-200 -94.5
t-259 -12.5zM378 314h127v275h-127v-275z" />
    <glyph glyph-name="uniFEEE" unicode="&#x648;" horiz-adv-x="911" arabic-form="final" 
d="M180 -442q-38 4 -66 29.5t-28 64.5v126q0 19 7.5 36.5t20.5 30t30 20t36 7.5q30 0 64 -1.5t68 -0.5t65.5 6.5t57.5 20t44.5 39.5t25.5 64h-178q-128 0 -196.5 68t-68.5 221v323q0 153 68.5 221t196.5 68h223q64 0 113 -16.5t83 -51.5t51 -90t17 -131l-1 -298h104v-314
h-108q-14 -119 -64 -208t-132 -145.5t-191.5 -79t-241.5 -9.5zM375 314h127v275h-127v-275z" />
    <glyph glyph-name="afii57470" unicode="&#x647;" horiz-adv-x="886" arabic-form="isolated" 
d="M382 314h127v275h-127v-275zM334 0q-128 0 -196 68t-68 221v323q0 153 68 221t196 68h223q64 0 113 -16.5t83 -51.5t51.5 -90t17.5 -131v-323q0 -77 -17.5 -131.5t-51 -89.5t-82.5 -51.5t-113 -16.5h-224z" />
    <glyph glyph-name="uniFEEA" unicode="&#x647;" horiz-adv-x="921" arabic-form="final" 
d="M382 314h127v275h-127v-275zM823 314h102v-314h-590q-128 0 -196.5 68t-68.5 221v323q0 153 68.5 221t196.5 68h223q64 0 113 -16.5t83 -51.5t51.5 -90t17.5 -131v-298z" />
    <glyph glyph-name="uniFEEB" unicode="&#x647;" horiz-adv-x="1339" arabic-form="initial" 
d="M403 314h127v275h-127v-275zM1019 901q64 0 113 -16.5t83 -51.5t51.5 -90t17.5 -131v-323q0 -77 -17.5 -131.5t-51.5 -89.5t-83 -51.5t-113 -16.5h-1025v314h96v298q0 153 68.5 221t196.5 68h664zM843 314h128v275h-128v-275z" />
    <glyph glyph-name="uniFEEC" unicode="&#x647;" horiz-adv-x="1379" arabic-form="medial" 
d="M407 314h127v275h-127v-275zM1288 314h94v-314h-1385v314h97v298q0 153 68 221t196 68h664q128 0 196.5 -68t68.5 -221zM847 314h128l-1 275h-127v-275z" />
    <glyph glyph-name="afii57417" unicode="&#x629;" horiz-adv-x="886" arabic-form="isolated" 
d="M382 314h127v275h-127v-275zM334 0q-128 0 -196 68t-68 221v323q0 153 68 221t196 68h223q64 0 113 -16.5t83 -51.5t51.5 -90t17.5 -131v-323q0 -77 -17.5 -131.5t-51 -89.5t-82.5 -51.5t-113 -16.5h-224zM183 1201v77q0 61 26.5 87.5t77.5 26.5h91q15 0 26 -10.5
t11 -26.5v-50q0 -15 -11 -25.5t-26 -10.5h-73v-68h73q15 0 26 -10.5t11 -25.5v-50q0 -16 -11 -26.5t-26 -10.5h-216q-16 0 -27 10.5t-11 26.5v50q0 15 11 25.5t27 10.5h21z" />
    <glyph glyph-name="uniFBA5" unicode="&#x6c0;" horiz-adv-x="921" arabic-form="final" 
d="M382 314h127v275h-127v-275zM823 314h122v-314h-610q-128 0 -196.5 68t-68.5 221v323q0 153 68.5 221t196.5 68h223q64 0 113 -16.5t83 -51.5t51.5 -90t17.5 -131v-298zM183 1201v77q0 61 26.5 87.5t77.5 26.5h91q15 0 26 -10.5t11 -26.5v-50q0 -15 -11 -25.5t-26 -10.5
h-73v-68h73q15 0 26 -10.5t11 -25.5v-50q0 -16 -11 -26.5t-26 -10.5h-216q-16 0 -27 10.5t-11 26.5v50q0 15 11 25.5t27 10.5h21z" />
    <glyph glyph-name="afii57450" unicode="&#x64a;" horiz-adv-x="1170" arabic-form="isolated" 
d="M1009 900q19 0 36.5 -7.5t30 -20t20 -30t7.5 -36.5v-125q0 -19 -7.5 -36t-20 -29.5t-30 -20t-36.5 -7.5l-160 1v-275h127q165 -7 130 -314q-13 -103 -59 -187t-116.5 -142.5t-161.5 -90t-194 -29.5q-97 2 -173 26t-133.5 66t-98 100t-65.5 127t-36.5 148t-11.5 162
q1 10 1.5 21.5t0.5 30.5v51v80q0 19 7.5 36.5t20 30t29.5 20t36 7.5h126q19 0 36.5 -7.5t30 -20t20 -30t7.5 -36.5v-182q0 -51 6.5 -105t29.5 -99t68.5 -75.5t123.5 -35.5q34 -2 68 6t61.5 25.5t47 43.5t25.5 59q-70 0 -120.5 20t-82.5 57.5t-47.5 91t-15.5 120.5v323
q0 153 68.5 221.5t196.5 67.5z" />
    <glyph glyph-name="uniFBFD" unicode="&#x6cc;" horiz-adv-x="1200" arabic-form="final" 
d="M57 180v183q0 19 7.5 36.5t20.5 30t30 20t36 7.5h126q19 0 36.5 -7.5t30 -20t20 -30t7.5 -36.5v-182q0 -51 6 -105t29.5 -99t69 -75.5t123.5 -35.5q34 -2 68 6t61.5 25.5t47 43.5t24.5 59h-161q-19 0 -36 7.5t-30 20t-20.5 29.5t-7.5 37v126q0 19 7.5 36.5t20.5 30t30 20
t36 7.5h566v-314h-100q-13 -103 -59.5 -187t-117 -142.5t-161.5 -90t-194 -29.5q-145 3 -244 54.5t-159.5 137.5t-87 199t-25.5 238z" />
    <glyph glyph-name="uniFBFE" unicode="&#x6cc;" horiz-adv-x="757" arabic-form="initial" 
d="M-4 314h384v491q0 19 7.5 36t20.5 29.5t30 20t36 7.5h125q19 0 36.5 -7.5t30 -20t20 -29.5t7.5 -36v-516q0 -153 -68.5 -221t-196.5 -68h-432v314zM334 -276q0 -33 -12.5 -61.5t-33.5 -50t-49.5 -34t-61.5 -12.5q-32 0 -60.5 12.5t-49.5 34t-33.5 50t-12.5 61.5
q0 32 12.5 60.5t33.5 49.5t49.5 33t60.5 12q33 0 61.5 -12t49.5 -33t33.5 -49.5t12.5 -60.5zM693 -276q0 -33 -12.5 -61.5t-34 -50t-50 -34t-60.5 -12.5t-60.5 12.5t-50 34t-34 50t-12.5 61.5q0 32 12.5 60.5t34 49.5t50 33t60.5 12t60.5 -12t50 -33t34 -49.5t12.5 -60.5z
" />
    <glyph glyph-name="uniFBFF" unicode="&#x6cc;" horiz-adv-x="706" arabic-form="medial" 
d="M503 314h210v-314h-723v314h199v491q0 19 7.5 36t20 29.5t30 20t37.5 7.5h124q19 0 36.5 -7.5t30.5 -20t20.5 -29.5t7.5 -36v-491zM328 -276q0 -33 -12.5 -61.5t-33.5 -50t-49.5 -34t-61.5 -12.5q-32 0 -60.5 12.5t-49.5 34t-33.5 50t-12.5 61.5q0 32 12.5 60.5
t33.5 49.5t49.5 33t60.5 12q33 0 61.5 -12t49.5 -33t33.5 -49.5t12.5 -60.5zM686 -276q0 -33 -12.5 -61.5t-33.5 -50t-49.5 -34t-60.5 -12.5t-60.5 12.5t-50 34t-34 50t-12.5 61.5q0 32 12.5 60.5t34 49.5t50 33t60.5 12t60.5 -12t49.5 -33t33.5 -49.5t12.5 -60.5z" />
    <glyph glyph-name="afii57449" unicode="&#x649;" horiz-adv-x="1170" arabic-form="isolated" 
d="M1009 900q19 0 36.5 -7.5t30 -20t20 -30t7.5 -36.5v-125q0 -19 -7.5 -36t-20 -29.5t-30 -20t-36.5 -7.5l-160 1v-275h127q165 -7 130 -314q-13 -103 -59 -187t-116.5 -142.5t-161.5 -90t-194 -29.5q-97 2 -173 26t-133.5 66t-98 100t-65.5 127t-36.5 148t-11.5 162
q1 10 1.5 21.5t0.5 30.5v51v80q0 19 7.5 36.5t20 30t29.5 20t36 7.5h126q19 0 36.5 -7.5t30 -20t20 -30t7.5 -36.5v-182q0 -51 6.5 -105t29.5 -99t68.5 -75.5t123.5 -35.5q34 -2 68 6t61.5 25.5t47 43.5t25.5 59q-70 0 -120.5 20t-82.5 57.5t-47.5 91t-15.5 120.5v323
q0 153 68.5 221.5t196.5 67.5z" />
    <glyph glyph-name="uniFEF0" unicode="&#x649;" horiz-adv-x="1200" arabic-form="final" 
d="M57 180v183q0 19 7.5 36.5t20.5 30t30 20t36 7.5h126q19 0 36.5 -7.5t30 -20t20 -30t7.5 -36.5v-182q0 -51 6 -105t29.5 -99t69 -75.5t123.5 -35.5q34 -2 68 6t61.5 25.5t47 43.5t24.5 59h-161q-19 0 -36 7.5t-30 20t-20.5 29.5t-7.5 37v126q0 19 7.5 36.5t20.5 30t30 20
t36 7.5h566v-314h-100q-13 -103 -59.5 -187t-117 -142.5t-161.5 -90t-194 -29.5q-145 3 -244 54.5t-159.5 137.5t-87 199t-25.5 238z" />
    <glyph glyph-name="glyph1" 
 />
    <glyph glyph-name="glyph2" horiz-adv-x="500" 
 />
    <glyph glyph-name="space" unicode=" " horiz-adv-x="500" 
 />
    <glyph glyph-name="exclam" unicode="!" horiz-adv-x="438" 
d="M67 1100q0 19 7.5 36.5t20 30t29.5 20t37 7.5h125q19 0 36.5 -7.5t30 -20t20 -30t7.5 -36.5v-1012q0 -20 -7.5 -37t-20 -29.5t-30 -20t-36.5 -7.5h-125q-20 0 -37 7.5t-29.5 20t-20 29.5t-7.5 37v1012zM134 -303v76q0 61 26.5 87.5t76.5 26.5h92q15 0 25.5 -10t10.5 -26
v-50q0 -15 -10.5 -26t-25.5 -11h-73v-67h73q15 0 25.5 -11.5t10.5 -25.5v-49q0 -16 -10.5 -27t-25.5 -11h-217q-16 0 -26.5 11t-10.5 27v49q0 14 10.5 25.5t26.5 11.5h22z" />
    <glyph glyph-name="percent" unicode="%" horiz-adv-x="829" 
d="M719 1299l-419 -1391l-238 -127l418 1391zM640 214q28 0 53 -11t43.5 -29.5t29.5 -44t11 -53.5t-11 -53t-29.5 -43.5t-43.5 -29t-53 -10.5t-52.5 10.5t-43 29t-29 43.5t-10.5 53t10.5 53.5t29 44t43 29.5t52.5 11zM147 1118q28 0 53 -10.5t43.5 -29t29 -43.5t10.5 -53
t-10.5 -53t-29 -43.5t-43.5 -29.5t-53 -11t-53 11t-43.5 29.5t-29.5 43.5t-11 53t11 53t29.5 43.5t43.5 29t53 10.5z" />
    <glyph glyph-name="parenleft" unicode="(" horiz-adv-x="643" 
d="M610 -692h-176q-179 262 -269.5 496.5t-90.5 504.5q0 105 9 186.5t31 161.5t48.5 152t66.5 143q70 137 209 344h172l-96 -194l-74 -156q-55 -130 -92 -281q-18 -78 -26.5 -152.5t-8.5 -154.5q0 -115 8 -214.5t24 -183t36.5 -153.5t50.5 -139q57 -132 178 -360z" />
    <glyph glyph-name="parenright" unicode=")" horiz-adv-x="643" 
d="M573 309q0 -137 -21.5 -259.5t-66 -242.5t-110.5 -240q-69 -126 -164 -259h-176q113 210 174 354q29 65 52.5 139.5t39.5 157.5q13 75 25 178q0 27 4 101t4 120q0 85 -8 159.5t-27.5 149.5t-39.5 136q-23 70 -56 143q-63 144 -168 350h174q56 -85 105 -167.5t92 -164.5
q80 -157 123.5 -309.5t43.5 -345.5z" />
    <glyph glyph-name="asterisk" unicode="*" horiz-adv-x="948" 
d="M860 1248l-52 153l-233 -73v233h-169l2 -229l-234 71l-54 -153l237 -73l-146 -188l135 -92l143 185l145 -185l138 92l-145 188z" />
    <glyph glyph-name="plus" unicode="+" horiz-adv-x="1139" 
d="M1086 391h-391v-391h-233v391h-392v232h392v393h233v-393h391v-232z" />
    <glyph glyph-name="comma" unicode="," horiz-adv-x="555" 
d="M131 379q0 60 43 103q40 33 112 33q35 0 62.5 -7.5t50.5 -25.5q41 -38 41 -103v-59q0 -72 -11 -128.5t-35 -101.5t-75.5 -67.5t-132.5 -22.5v134q64 6 85 27t21 71q-40 0 -71 11.5t-53 35.5q-37 36 -37 100z" />
    <glyph glyph-name="hyphen" unicode="-" horiz-adv-x="1010" 
d="M952 101h-915v234h915v-234z" />
    <glyph glyph-name="period" unicode="." horiz-adv-x="545" 
d="M438 143q0 -60 -44 -101.5t-111 -41.5q-61 0 -106.5 37.5t-45.5 105.5q0 32 9.5 56t31.5 43q45 37 111 37q68 0 111.5 -34.5t43.5 -101.5z" />
    <glyph glyph-name="slash" unicode="/" horiz-adv-x="940" 
d="M892 1077l-589 -1077h-248l592 1077h245z" />
    <glyph glyph-name="zero" unicode="0" horiz-adv-x="1149" 
d="M765 601l-99 -342l-281 168l99 347z" />
    <glyph glyph-name="zero" unicode="&#x6f0;" horiz-adv-x="1149" 
d="M765 601l-99 -342l-281 168l99 347z" />
    <glyph glyph-name="zero" unicode="&#x660;" horiz-adv-x="1149" 
d="M765 601l-99 -342l-281 168l99 347z" />
    <glyph glyph-name="one" unicode="1" horiz-adv-x="1149" 
d="M780 243q0 -324 -72 -324q-15 0 -30.5 42t-32.5 114.5t-36 169t-40 205.5q-33 99 -82.5 204t-117.5 219v18q0 9 6 34.5t15.5 58.5t21.5 69.5t24.5 66.5t24 49.5t20.5 19.5q25 0 64 -66q117 -199 176.5 -417.5t58.5 -462.5z" />
    <glyph glyph-name="one" unicode="&#x6f1;" horiz-adv-x="1149" 
d="M780 243q0 -324 -72 -324q-15 0 -30.5 42t-32.5 114.5t-36 169t-40 205.5q-33 99 -82.5 204t-117.5 219v18q0 9 6 34.5t15.5 58.5t21.5 69.5t24.5 66.5t24 49.5t20.5 19.5q25 0 64 -66q117 -199 176.5 -417.5t58.5 -462.5z" />
    <glyph glyph-name="one" unicode="&#x661;" horiz-adv-x="1149" 
d="M780 243q0 -324 -72 -324q-15 0 -30.5 42t-32.5 114.5t-36 169t-40 205.5q-33 99 -82.5 204t-117.5 219v18q0 9 6 34.5t15.5 58.5t21.5 69.5t24.5 66.5t24 49.5t20.5 19.5q25 0 64 -66q117 -199 176.5 -417.5t58.5 -462.5z" />
    <glyph glyph-name="two" unicode="2" horiz-adv-x="1149" 
d="M922 1074q0 -385 -254 -428l-8 -5q38 -115 56 -237.5t18 -254.5q0 -224 -66 -224q-26 9 -39 23.5t-20 39t-12 60.5t-15 88q-86 389 -240 658q1 -1 -7.5 11t-21 30.5t-27.5 41t-28.5 42t-22 33.5t-8.5 15q0 4 7.5 20t19 37.5t25.5 46.5t27.5 47t24.5 38.5t16 21.5
q10 -1 29 -16t42 -36.5t47 -45.5t42.5 -44t29 -31.5t6.5 -8.5h50q46 0 78 4t58 18.5t50 42t54 75.5q28 42 63 42q16 0 21 -30.5t5 -73.5z" />
    <glyph glyph-name="two" unicode="&#x6f2;" horiz-adv-x="1149" 
d="M922 1074q0 -385 -254 -428l-8 -5q38 -115 56 -237.5t18 -254.5q0 -224 -66 -224q-26 9 -39 23.5t-20 39t-12 60.5t-15 88q-86 389 -240 658q1 -1 -7.5 11t-21 30.5t-27.5 41t-28.5 42t-22 33.5t-8.5 15q0 4 7.5 20t19 37.5t25.5 46.5t27.5 47t24.5 38.5t16 21.5
q10 -1 29 -16t42 -36.5t47 -45.5t42.5 -44t29 -31.5t6.5 -8.5h50q46 0 78 4t58 18.5t50 42t54 75.5q28 42 63 42q16 0 21 -30.5t5 -73.5z" />
    <glyph glyph-name="two" unicode="&#x662;" horiz-adv-x="1149" 
d="M922 1074q0 -385 -254 -428l-8 -5q38 -115 56 -237.5t18 -254.5q0 -224 -66 -224q-26 9 -39 23.5t-20 39t-12 60.5t-15 88q-86 389 -240 658q1 -1 -7.5 11t-21 30.5t-27.5 41t-28.5 42t-22 33.5t-8.5 15q0 4 7.5 20t19 37.5t25.5 46.5t27.5 47t24.5 38.5t16 21.5
q10 -1 29 -16t42 -36.5t47 -45.5t42.5 -44t29 -31.5t6.5 -8.5h50q46 0 78 4t58 18.5t50 42t54 75.5q28 42 63 42q16 0 21 -30.5t5 -73.5z" />
    <glyph glyph-name="three" unicode="3" horiz-adv-x="1149" 
d="M1055 1052q0 -66 -17.5 -131.5t-47.5 -117t-70.5 -84t-86.5 -32.5q-19 0 -50.5 9t-61.5 20q-35 12 -74 29q-38 -33 -80 -61t-89 -51q60 -248 60 -468q0 -246 -76 -246q-24 0 -38.5 26t-23.5 70t-14.5 102t-12.5 121q-3 25 -14 68t-28 95t-38.5 109t-43.5 111t-44 100.5
t-40 77.5q-14 19 -26.5 39t-22.5 37t-16 28t-6 13q0 3 9.5 20t24 40t31.5 49.5t32.5 49.5t27.5 38.5t16 17.5q39 -41 75 -78t67 -65t57 -44.5t44 -16.5q57 0 136 123q81 122 102 122q17 0 29 -8l15 -26q12 -83 20 -101q24 -47 97 -47q33 0 66 73q35 73 67 73q45 0 45 -84z
" />
    <glyph glyph-name="three" unicode="&#x6f3;" horiz-adv-x="1149" 
d="M1055 1052q0 -66 -17.5 -131.5t-47.5 -117t-70.5 -84t-86.5 -32.5q-19 0 -50.5 9t-61.5 20q-35 12 -74 29q-38 -33 -80 -61t-89 -51q60 -248 60 -468q0 -246 -76 -246q-24 0 -38.5 26t-23.5 70t-14.5 102t-12.5 121q-3 25 -14 68t-28 95t-38.5 109t-43.5 111t-44 100.5
t-40 77.5q-14 19 -26.5 39t-22.5 37t-16 28t-6 13q0 3 9.5 20t24 40t31.5 49.5t32.5 49.5t27.5 38.5t16 17.5q39 -41 75 -78t67 -65t57 -44.5t44 -16.5q57 0 136 123q81 122 102 122q17 0 29 -8l15 -26q12 -83 20 -101q24 -47 97 -47q33 0 66 73q35 73 67 73q45 0 45 -84z
" />
    <glyph glyph-name="three" unicode="&#x663;" horiz-adv-x="1149" 
d="M1055 1052q0 -66 -17.5 -131.5t-47.5 -117t-70.5 -84t-86.5 -32.5q-19 0 -50.5 9t-61.5 20q-35 12 -74 29q-38 -33 -80 -61t-89 -51q60 -248 60 -468q0 -246 -76 -246q-24 0 -38.5 26t-23.5 70t-14.5 102t-12.5 121q-3 25 -14 68t-28 95t-38.5 109t-43.5 111t-44 100.5
t-40 77.5q-14 19 -26.5 39t-22.5 37t-16 28t-6 13q0 3 9.5 20t24 40t31.5 49.5t32.5 49.5t27.5 38.5t16 17.5q39 -41 75 -78t67 -65t57 -44.5t44 -16.5q57 0 136 123q81 122 102 122q17 0 29 -8l15 -26q12 -83 20 -101q24 -47 97 -47q33 0 66 73q35 73 67 73q45 0 45 -84z
" />
    <glyph glyph-name="four" unicode="4" horiz-adv-x="1149" 
d="M864 192q0 -34 -86 -262h-21q-127 0 -279 61q-182 74 -182 182q0 72 75 185q5 7 35.5 47.5t87.5 115.5q-1 3 -28 21t-62 44t-69 55.5t-50 55.5v38v13q0 128 147 295q153 172 287 172l-38 -245q-28 -5 -58.5 -13.5t-55.5 -19.5t-41 -23.5t-16 -24.5q0 -23 109 -74
q60 -29 93 -47t38 -26q12 -17 12 -32q0 -43 -28 -91.5t-84 -105.5q-61 -62 -94 -108t-41 -75q30 -19 69.5 -35t84 -31t92.5 -29l96 -28q7 0 7 -15z" />
    <glyph glyph-name="four" unicode="&#x6f4;" horiz-adv-x="1149" 
d="M864 192q0 -34 -86 -262h-21q-127 0 -279 61q-182 74 -182 182q0 72 75 185q5 7 35.5 47.5t87.5 115.5q-1 3 -28 21t-62 44t-69 55.5t-50 55.5v38v13q0 128 147 295q153 172 287 172l-38 -245q-28 -5 -58.5 -13.5t-55.5 -19.5t-41 -23.5t-16 -24.5q0 -23 109 -74
q60 -29 93 -47t38 -26q12 -17 12 -32q0 -43 -28 -91.5t-84 -105.5q-61 -62 -94 -108t-41 -75q30 -19 69.5 -35t84 -31t92.5 -29l96 -28q7 0 7 -15z" />
    <glyph glyph-name="four" unicode="&#x664;" horiz-adv-x="1149" 
d="M864 192q0 -34 -86 -262h-21q-127 0 -279 61q-182 74 -182 182q0 72 75 185q5 7 35.5 47.5t87.5 115.5q-1 3 -28 21t-62 44t-69 55.5t-50 55.5v38v13q0 128 147 295q153 172 287 172l-38 -245q-28 -5 -58.5 -13.5t-55.5 -19.5t-41 -23.5t-16 -24.5q0 -23 109 -74
q60 -29 93 -47t38 -26q12 -17 12 -32q0 -43 -28 -91.5t-84 -105.5q-61 -62 -94 -108t-41 -75q30 -19 69.5 -35t84 -31t92.5 -29l96 -28q7 0 7 -15z" />
    <glyph glyph-name="five" unicode="5" horiz-adv-x="1149" 
d="M494 111q-272 0 -272 276q0 81 27.5 179t84.5 213q129 265 272 265q50 0 101 -39t111 -119q55 -75 84.5 -134.5t27.5 -110.5q0 -139 -26 -239.5t-80 -165t-136 -95t-194 -30.5zM778 473q-149 271 -281 272q-17 -16 -34.5 -44t-32 -60.5t-23.5 -64t-9 -53.5
q0 -117 179 -117q143 0 201 67z" />
    <glyph glyph-name="five" unicode="&#x6f5;" horiz-adv-x="1149" 
d="M494 111q-272 0 -272 276q0 81 27.5 179t84.5 213q129 265 272 265q50 0 101 -39t111 -119q55 -75 84.5 -134.5t27.5 -110.5q0 -139 -26 -239.5t-80 -165t-136 -95t-194 -30.5zM778 473q-149 271 -281 272q-17 -16 -34.5 -44t-32 -60.5t-23.5 -64t-9 -53.5
q0 -117 179 -117q143 0 201 67z" />
    <glyph glyph-name="five" unicode="&#x665;" horiz-adv-x="1149" 
d="M494 111q-272 0 -272 276q0 81 27.5 179t84.5 213q129 265 272 265q50 0 101 -39t111 -119q55 -75 84.5 -134.5t27.5 -110.5q0 -139 -26 -239.5t-80 -165t-136 -95t-194 -30.5zM778 473q-149 271 -281 272q-17 -16 -34.5 -44t-32 -60.5t-23.5 -64t-9 -53.5
q0 -117 179 -117q143 0 201 67z" />
    <glyph glyph-name="six" unicode="6" horiz-adv-x="1149" 
d="M959 192q0 -11 -4.5 -35.5t-12 -54t-17.5 -61t-20 -57.5t-20 -42.5t-18 -16.5q-70 0 -151 198q-71 175 -71 261v249q0 26 10 85q-65 -5 -108 -7.5t-66 -2.5q-292 0 -292 188q0 26 11.5 80t37.5 137q194 -100 328 -100q19 0 52 6t69 12.5t68 12.5t49 6q2 -8 4 -15.5
t2 -16.5q0 -13 -2.5 -36t-7 -51.5t-9 -59.5t-9 -60t-7 -52.5t-2.5 -37.5q0 -291 183 -508q3 -9 3 -21z" />
    <glyph glyph-name="six" unicode="&#x6f6;" horiz-adv-x="1149" 
d="M959 192q0 -11 -4.5 -35.5t-12 -54t-17.5 -61t-20 -57.5t-20 -42.5t-18 -16.5q-70 0 -151 198q-71 175 -71 261v249q0 26 10 85q-65 -5 -108 -7.5t-66 -2.5q-292 0 -292 188q0 26 11.5 80t37.5 137q194 -100 328 -100q19 0 52 6t69 12.5t68 12.5t49 6q2 -8 4 -15.5
t2 -16.5q0 -13 -2.5 -36t-7 -51.5t-9 -59.5t-9 -60t-7 -52.5t-2.5 -37.5q0 -291 183 -508q3 -9 3 -21z" />
    <glyph glyph-name="six" unicode="&#x666;" horiz-adv-x="1149" 
d="M959 192q0 -11 -4.5 -35.5t-12 -54t-17.5 -61t-20 -57.5t-20 -42.5t-18 -16.5q-70 0 -151 198q-71 175 -71 261v249q0 26 10 85q-65 -5 -108 -7.5t-66 -2.5q-292 0 -292 188q0 26 11.5 80t37.5 137q194 -100 328 -100q19 0 52 6t69 12.5t68 12.5t49 6q2 -8 4 -15.5
t2 -16.5q0 -13 -2.5 -36t-7 -51.5t-9 -59.5t-9 -60t-7 -52.5t-2.5 -37.5q0 -291 183 -508q3 -9 3 -21z" />
    <glyph glyph-name="seven" unicode="7" horiz-adv-x="1149" 
d="M1040 932l-3 -43q-118 -172 -207.5 -366t-150.5 -415q-54 -183 -91 -183q-16 0 -34.5 34.5t-40 93t-47 135.5t-55.5 162q-69 181 -187 347q-1 4 -18 21.5t-46 52.5q-26 32 -38 50t-12 20q0 8 7 29t18 48.5t25 57.5t27.5 56.5t25 46t17.5 24.5q85 -31 219 -332
q43 -100 83 -201t82 -202q4 12 16 43t27 71.5t32 86t32.5 86t27 71.5t16.5 43q90 232 224 362h18q16 -50 24.5 -94t8.5 -83v-22z" />
    <glyph glyph-name="seven" unicode="&#x6f7;" horiz-adv-x="1149" 
d="M1040 932l-3 -43q-118 -172 -207.5 -366t-150.5 -415q-54 -183 -91 -183q-16 0 -34.5 34.5t-40 93t-47 135.5t-55.5 162q-69 181 -187 347q-1 4 -18 21.5t-46 52.5q-26 32 -38 50t-12 20q0 8 7 29t18 48.5t25 57.5t27.5 56.5t25 46t17.5 24.5q85 -31 219 -332
q43 -100 83 -201t82 -202q4 12 16 43t27 71.5t32 86t32.5 86t27 71.5t16.5 43q90 232 224 362h18q16 -50 24.5 -94t8.5 -83v-22z" />
    <glyph glyph-name="seven" unicode="&#x667;" horiz-adv-x="1149" 
d="M1040 932l-3 -43q-118 -172 -207.5 -366t-150.5 -415q-54 -183 -91 -183q-16 0 -34.5 34.5t-40 93t-47 135.5t-55.5 162q-69 181 -187 347q-1 4 -18 21.5t-46 52.5q-26 32 -38 50t-12 20q0 8 7 29t18 48.5t25 57.5t27.5 56.5t25 46t17.5 24.5q85 -31 219 -332
q43 -100 83 -201t82 -202q4 12 16 43t27 71.5t32 86t32.5 86t27 71.5t16.5 43q90 232 224 362h18q16 -50 24.5 -94t8.5 -83v-22z" />
    </font>
</defs>
</svg>
